<svg xmlns="http://www.w3.org/2000/svg" viewBox="0 0 60 60" width="60" height="60" preserveAspectRatio="xMidYMid meet" style="width: 100%; height: 100%; transform: translate3d(0px, 0px, 0px); content-visibility: visible;"><defs><clipPath id="__lottie_element_392"><rect width="60" height="60" x="0" y="0"></rect></clipPath></defs><g clip-path="url(#__lottie_element_392)"><g transform="matrix(1,0,0,1,1.7199993133544922,1.9519996643066406)" opacity="1" style="display: block;"><g opacity="1" transform="matrix(1,0,0,1,0.28700000047683716,0.9549999833106995)"><path fill="rgb(255,255,255)" fill-opacity="1" d=" M26.368000030517578,24.113000869750977 C26.368000030517578,24.113000869750977 46.35300064086914,32.81700134277344 46.35300064086914,32.81700134277344 C46.35300064086914,32.81700134277344 42.5099983215332,51.499000549316406 42.5099983215332,51.499000549316406 C42.5099983215332,51.499000549316406 29.488000869750977,45.65800094604492 29.488000869750977,45.65800094604492 C29.488000869750977,45.65800094604492 26.368000030517578,24.113000869750977 26.368000030517578,24.113000869750977z"></path></g><g opacity="1" transform="matrix(1,0,0,1,32.97999954223633,22.709999084472656)"><g opacity="1" transform="matrix(1,0,0,1,-32.69300079345703,-21.878000259399414)"><path fill="rgb(255,255,255)" fill-opacity="1" d=" M44.137001037597656,34.082000732421875 C43.13800048828125,35.823001861572266 42.71900177001953,37.26900100708008 42.56700134277344,38.14400100708008 C42.24399948120117,40.04600143432617 43.25199890136719,41.891998291015625 44.801998138427734,41.891998291015625 C46.67599868774414,41.891998291015625 47.141998291015625,40.66400146484375 46.91400146484375,39.61800003051758 C46.79999923706055,39.11399841308594 46.571998596191406,38.762001037597656 46.571998596191406,38.762001037597656 C48.09400177001953,36.527000427246094 48.874000549316406,33.61600112915039 47.93199920654297,31.790000915527344 C46.64799880981445,29.288000106811523 44.13600158691406,28.621999740600586 42.367000579833984,28.479000091552734 C41.88199996948242,28.44099998474121 41.69200134277344,28.48900032043457 41.37799835205078,27.05299949645996 C40.57899856567383,23.323999404907227 39.790000915527344,18.434999465942383 38.82899856567383,12.517999649047852 C39.33300018310547,12.147000312805176 40.20800018310547,11.795000076293945 40.654998779296875,11.329000473022461 C41.09299850463867,10.86299991607666 41.45399856567383,10.310999870300293 41.720001220703125,9.711999893188477 C42.54800033569336,7.8379998207092285 42.38600158691406,5.535999774932861 41.61600112915039,3.615000009536743 C41.39699935913086,3.062999963760376 41.10300064086914,2.434999942779541 40.62699890136719,2.0929999351501465 C38.79100036621094,0.7609999775886536 38.1150016784668,5.639999866485596 37.86800003051758,6.544000148773193 C37.77299880981445,6.886000156402588 37.382999420166016,9.208000183105469 36.92599868774414,9.0649995803833 C35.52799987792969,8.607999801635742 32.79800033569336,8.170999526977539 29.858999252319336,8.722999572753906 C26.920000076293945,9.274999618530273 24.5310001373291,10.67199993133545 23.389999389648438,11.595000267028809 C23.018999099731445,11.89900016784668 21.81100082397461,9.873000144958496 21.601999282836914,9.588000297546387 C21.041000366210938,8.82699966430664 18.643999099731445,4.5279998779296875 17.41699981689453,6.429999828338623 C17.0939998626709,6.925000190734863 17.04599952697754,7.61899995803833 17.04599952697754,8.208999633789062 C17.027000427246094,10.282999992370605 17.702999114990234,12.479999542236328 19.158000946044922,13.925999641418457 C19.624000549316406,14.392000198364258 20.156999588012695,14.772000312805176 20.73699951171875,15.04800033569336 C21.316999435424805,15.324000358581543 22.381999969482422,15.456999778747559 22.990999221801758,15.619000434875488 C23.52400016784668,19.576000213623047 24.645999908447266,25.635000228881836 26.1200008392334,26.729000091552734"></path></g><g opacity="1" transform="matrix(1,0,0,1,-32.69300079345703,-21.878000259399414)"><path stroke-linecap="round" stroke-linejoin="round" fill-opacity="0" stroke="rgb(33,30,31)" stroke-opacity="1" stroke-width="0.6" d=" M44.137001037597656,34.082000732421875 C43.13800048828125,35.823001861572266 42.71900177001953,37.26900100708008 42.56700134277344,38.14400100708008 C42.24399948120117,40.04600143432617 43.25199890136719,41.891998291015625 44.801998138427734,41.891998291015625 C46.67599868774414,41.891998291015625 47.141998291015625,40.66400146484375 46.91400146484375,39.61800003051758 C46.79999923706055,39.11399841308594 46.571998596191406,38.762001037597656 46.571998596191406,38.762001037597656 C48.09400177001953,36.527000427246094 48.874000549316406,33.61600112915039 47.93199920654297,31.790000915527344 C46.64799880981445,29.288000106811523 44.13600158691406,28.621999740600586 42.367000579833984,28.479000091552734 C41.88199996948242,28.44099998474121 41.69200134277344,28.48900032043457 41.37799835205078,27.05299949645996 C40.57899856567383,23.323999404907227 39.790000915527344,18.434999465942383 38.82899856567383,12.517999649047852 C39.33300018310547,12.147000312805176 40.20800018310547,11.795000076293945 40.654998779296875,11.329000473022461 C41.09299850463867,10.86299991607666 41.45399856567383,10.310999870300293 41.720001220703125,9.711999893188477 C42.54800033569336,7.8379998207092285 42.38600158691406,5.535999774932861 41.61600112915039,3.615000009536743 C41.39699935913086,3.062999963760376 41.10300064086914,2.434999942779541 40.62699890136719,2.0929999351501465 C38.79100036621094,0.7609999775886536 38.1150016784668,5.639999866485596 37.86800003051758,6.544000148773193 C37.77299880981445,6.886000156402588 37.382999420166016,9.208000183105469 36.92599868774414,9.0649995803833 C35.52799987792969,8.607999801635742 32.79800033569336,8.170999526977539 29.858999252319336,8.722999572753906 C26.920000076293945,9.274999618530273 24.5310001373291,10.67199993133545 23.389999389648438,11.595000267028809 C23.018999099731445,11.89900016784668 21.81100082397461,9.873000144958496 21.601999282836914,9.588000297546387 C21.041000366210938,8.82699966430664 18.643999099731445,4.5279998779296875 17.41699981689453,6.429999828338623 C17.0939998626709,6.925000190734863 17.04599952697754,7.61899995803833 17.04599952697754,8.208999633789062 C17.027000427246094,10.282999992370605 17.702999114990234,12.479999542236328 19.158000946044922,13.925999641418457 C19.624000549316406,14.392000198364258 20.156999588012695,14.772000312805176 20.73699951171875,15.04800033569336 C21.316999435424805,15.324000358581543 22.381999969482422,15.456999778747559 22.990999221801758,15.619000434875488 C23.52400016784668,19.576000213623047 24.645999908447266,25.635000228881836 26.1200008392334,26.729000091552734"></path></g><g opacity="1" transform="matrix(1,0,0,1,-32.69300079345703,-21.878000259399414)"><path fill="rgb(252,210,184)" fill-opacity="1" d=" M39.21900177001953,11.281000137329102 C39.85599899291992,11.081000328063965 40.255001068115234,10.359000205993652 40.54999923706055,9.769000053405762 C41.1870002746582,8.475000381469727 41.55799865722656,6.991000175476074 41.33000183105469,5.535999774932861 C41.26300048828125,5.070000171661377 41.12099838256836,4.604000091552734 40.80699920654297,4.270999908447266 C40.71200180053711,4.165999889373779 40.5890007019043,4.079999923706055 40.44599914550781,4.090000152587891 C40.275001525878906,4.109000205993652 40.15999984741211,4.28000020980835 40.08399963378906,4.441999912261963 C39.95100021362305,4.7179999351501465 39.86600112915039,5.013000011444092 39.79899978637695,5.308000087738037 C39.58000183105469,6.192999839782715 39.47600173950195,7.114999771118164 39.33300018310547,8.019000053405762 C39.20000076293945,8.885000228881836 39.03799819946289,9.75 39,10.635000228881836 C39,10.854000091552734 39,11.33899974822998 39.21900177001953,11.291000366210938 M22.06800079345703,14.496999740600586 C21.402000427246094,14.53499984741211 20.764999389648438,14.01099967956543 20.280000686645508,13.564000129699707 C19.224000930786133,12.593999862670898 18.34000015258789,11.338000297546387 18.025999069213867,9.902000427246094 C17.92099952697754,9.444999694824219 17.882999420166016,8.951000213623047 18.054000854492188,8.531999588012695 C18.111000061035156,8.39900016784668 18.187000274658203,8.265999794006348 18.31999969482422,8.227999687194824 C18.48200035095215,8.180000305175781 18.65399932861328,8.293999671936035 18.78700065612793,8.418000221252441 C19.006000518798828,8.626999855041504 19.195999145507812,8.866000175476074 19.367000579833984,9.11299991607666 C19.889999389648438,9.86400032043457 20.32699966430664,10.67300033569336 20.784000396728516,11.472000122070312 C21.222000122070312,12.232999801635742 21.687999725341797,12.984000205993652 22.040000915527344,13.793000221252441 C22.125999450683594,13.993000030517578 22.29599952697754,14.439000129699707 22.06800079345703,14.487000465393066"></path></g><g opacity="1" transform="matrix(1,0,0,1,-32.69300079345703,-21.878000259399414)"><path stroke-linecap="round" stroke-linejoin="round" fill-opacity="0" stroke="rgb(33,30,31)" stroke-opacity="1" stroke-width="0.6" d=" M37.16400146484375,8.970000267028809 C37.00199890136719,9.331000328063965 36.65999984741211,9.692999839782715 36.65999984741211,9.692999839782715 M22.94300079345703,11.414999961853027 C23.208999633789062,11.699999809265137 23.666000366210938,11.928000450134277 23.666000366210938,11.928000450134277"></path></g></g><g opacity="1" transform="matrix(1,0,0,1,41.5359992980957,52.75299835205078)"><g opacity="1" transform="matrix(1,0,0,1,-41.249000549316406,-51.79800033569336)"></g><g opacity="1" transform="matrix(1,0,0,1,-41.249000549316406,-51.79800033569336)"><path fill="rgb(255,255,255)" fill-opacity="1" d=" M45.724998474121094,47.76100158691406 C45.724998474121094,47.76100158691406 46.867000579833984,48.874000549316406 46.867000579833984,48.874000549316406 C48.007999420166016,49.98699951171875 50.89099884033203,52.25 49.65399932861328,54.47600173950195 C48.617000579833984,56.33100128173828 47.07500076293945,55.89400100708008 45.99100112915039,55.4370002746582 C44.90700149536133,54.97999954223633 43.327999114990234,54.21900177001953 43.327999114990234,54.21900177001953 C42.65299987792969,53.915000915527344 33.292999267578125,49.4630012512207 30.43899917602539,45.65800094604492"></path><path stroke-linecap="round" stroke-linejoin="round" fill-opacity="0" stroke="rgb(33,30,31)" stroke-opacity="1" stroke-width="0.6" d=" M45.724998474121094,47.76100158691406 C45.724998474121094,47.76100158691406 46.867000579833984,48.874000549316406 46.867000579833984,48.874000549316406 C48.007999420166016,49.98699951171875 50.89099884033203,52.25 49.65399932861328,54.47600173950195 C48.617000579833984,56.33100128173828 47.07500076293945,55.89400100708008 45.99100112915039,55.4370002746582 C44.90700149536133,54.97999954223633 43.327999114990234,54.21900177001953 43.327999114990234,54.21900177001953 C42.65299987792969,53.915000915527344 33.292999267578125,49.4630012512207 30.43899917602539,45.65800094604492"></path></g></g><g opacity="1" transform="matrix(0.9848077297210693,0.1736481785774231,-0.1736481785774231,0.9848077297210693,43.36899948120117,46.77299880981445)"><g opacity="1" transform="matrix(1,0,0,1,-43.082000732421875,-45.819000244140625)"></g><g opacity="1" transform="matrix(1,0,0,1,-43.082000732421875,-45.819000244140625)"><path fill="rgb(255,255,255)" fill-opacity="1" d=" M39.152000427246094,49.71099853515625 C39.409000396728516,49.87300109863281 39.694000244140625,49.97700119018555 39.85599899291992,50.119998931884766 C39.85599899291992,50.119998931884766 40.255001068115234,50.3390007019043 40.41699981689453,51.13800048828125 C40.569000244140625,51.9370002746582 40.9119987487793,53.87699890136719 40.9119987487793,53.87699890136719 C40.9119987487793,53.87699890136719 41.10300064086914,54.89500045776367 41.483001708984375,55.53200149536133 C42.31999969482422,56.94900131225586 43.880001068115234,56.654998779296875 43.880001068115234,56.654998779296875 C46.04899978637695,56.597999572753906 46.553001403808594,53.14500045776367 46.553001403808594,53.14500045776367 C46.7239990234375,52.5359992980957 46.89500045776367,51.499000549316406 46.94300079345703,50.48099899291992 C47.31399917602539,43.5369987487793 46.16299819946289,40.340999603271484 43.76599884033203,34.957000732421875"></path><path stroke-linecap="round" stroke-linejoin="round" fill-opacity="0" stroke="rgb(33,30,31)" stroke-opacity="1" stroke-width="0.6" d=" M39.152000427246094,49.71099853515625 C39.409000396728516,49.87300109863281 39.694000244140625,49.97700119018555 39.85599899291992,50.119998931884766 C39.85599899291992,50.119998931884766 40.255001068115234,50.3390007019043 40.41699981689453,51.13800048828125 C40.569000244140625,51.9370002746582 40.9119987487793,53.87699890136719 40.9119987487793,53.87699890136719 C40.9119987487793,53.87699890136719 41.10300064086914,54.89500045776367 41.483001708984375,55.53200149536133 C42.31999969482422,56.94900131225586 43.880001068115234,56.654998779296875 43.880001068115234,56.654998779296875 C46.04899978637695,56.597999572753906 46.553001403808594,53.14500045776367 46.553001403808594,53.14500045776367 C46.7239990234375,52.5359992980957 46.89500045776367,51.499000549316406 46.94300079345703,50.48099899291992 C47.31399917602539,43.5369987487793 46.16299819946289,40.340999603271484 43.76599884033203,34.957000732421875"></path></g></g><g opacity="1" transform="matrix(1,0,0,1,27.572999954223633,18.601999282836914)"><path fill="rgb(252,210,184)" fill-opacity="1" d=" M1.4529999494552612,2.614000082015991 C1.9839999675750732,1.656000018119812 3.131999969482422,1.003999948501587 4.36299991607666,0.7519999742507935 C5.60099983215332,0.5320000052452087 6.9029998779296875,0.7160000205039978 7.747000217437744,1.4149999618530273 C9.079999923706055,2.5139999389648438 9.309000015258789,4.389999866485596 8.9399995803833,5.993000030517578 C8.598999977111816,7.4720001220703125 7.64900016784668,9.359000205993652 6.033999919891357,9.656999588012695 C4.422999858856201,9.968999862670898 2.8570001125335693,8.5649995803833 2.002000093460083,7.313000202178955 C1.0770000219345093,5.954999923706055 0.6119999885559082,4.124000072479248 1.4529999494552612,2.609999895095825"></path></g><g opacity="1" transform="matrix(1,0,0,1,0.2869987487792969,0.9539995193481445)"><path stroke-linecap="round" stroke-linejoin="miter" fill-opacity="0" stroke-miterlimit="10" stroke="rgb(33,30,31)" stroke-opacity="1" stroke-width="0.6" d=" M32.104000091552734,20.641000747680664 C32.104000091552734,20.641000747680664 32.54100036621094,22.952999114990234 32.54100036621094,22.952999114990234"></path></g><g opacity="1" transform="matrix(1,0,0,1,0.28700000047683716,0.9549999833106995)"><path fill="rgb(33,30,31)" fill-opacity="1" d=" M33.625999450683594,19.461999893188477 C33.520999908447266,18.90999984741211 32.65599822998047,18.833999633789062 31.790000915527344,18.996000289916992 C30.923999786376953,19.158000946044922 30.143999099731445,19.547000885009766 30.249000549316406,20.099000930786133 C30.392000198364258,20.83099937438965 31.552000045776367,21.288999557495117 32.19900131225586,21.165000915527344 C32.85499954223633,21.041000366210938 33.76900100708008,20.194000244140625 33.625999450683594,19.45199966430664"></path></g><g opacity="1" transform="matrix(1,0,0,1,0.28700000047683716,0.9549999833106995)"><path stroke-linecap="round" stroke-linejoin="miter" fill-opacity="0" stroke-miterlimit="10" stroke="rgb(33,30,31)" stroke-opacity="1" stroke-width="0.6" d=" M30.115999221801758,22.448999404907227 C31.59000015258789,23.457000732421875 33.606998443603516,23.076000213623047 34.6150016784668,21.601999282836914"></path></g><g opacity="1" transform="matrix(1,0,0,1,0.09533333033323288,0.7453333139419556)"><path stroke-linecap="round" stroke-linejoin="miter" fill-opacity="0" stroke-miterlimit="10" stroke="rgb(33,30,31)" stroke-opacity="1" stroke-width="0.6" d=" M35.3380012512207,14.487000465393066 C35.3380012512207,14.487000465393066 33.244998931884766,14.88700008392334 33.244998931884766,14.88700008392334"></path></g><g opacity="1" transform="matrix(1,0,0,1,0.20366668701171875,0.8043336868286133)"><path stroke-linecap="round" stroke-linejoin="miter" fill-opacity="0" stroke-miterlimit="10" stroke="rgb(33,30,31)" stroke-opacity="1" stroke-width="0.6" d=" M29.08799934387207,15.666999816894531 C29.08799934387207,15.666999816894531 26.996000289916992,16.06599998474121 26.996000289916992,16.06599998474121"></path></g><g opacity="1" transform="matrix(1,0,0,1,45.70800018310547,37.715999603271484)"><g opacity="1" transform="matrix(1,0,0,1,-45.42100143432617,-36.84400177001953)"><path fill="rgb(255,255,255)" fill-opacity="1" d=" M44.137001037597656,34.082000732421875 C43.13800048828125,35.823001861572266 42.71900177001953,37.26900100708008 42.56700134277344,38.14400100708008 C42.24399948120117,40.04600143432617 43.25199890136719,41.891998291015625 44.801998138427734,41.891998291015625 C46.67599868774414,41.891998291015625 47.141998291015625,40.66400146484375 46.91400146484375,39.61800003051758 C46.79999923706055,39.11399841308594 46.571998596191406,38.762001037597656 46.571998596191406,38.762001037597656 C48.09400177001953,36.527000427246094 48.874000549316406,33.61600112915039 47.93199920654297,31.790000915527344"></path></g><g opacity="1" transform="matrix(1,0,0,1,-45.42100143432617,-36.84400177001953)"><path fill="rgb(252,210,184)" fill-opacity="1" d=" M42.57699966430664,38.14400100708008 C42.57699966430664,38.14400100708008 43.832000732421875,39.084999084472656 46.590999603271484,38.762001037597656 C46.590999603271484,38.762001037597656 48.09400177001953,41.36899948120117 45.32600021362305,41.854000091552734 C42.55799865722656,42.3390007019043 42.33000183105469,38.68600082397461 42.57699966430664,38.14400100708008"></path></g><g opacity="1" transform="matrix(1,0,0,1,-45.42100143432617,-36.84400177001953)"><path stroke-linecap="round" stroke-linejoin="round" fill-opacity="0" stroke="rgb(33,30,31)" stroke-opacity="1" stroke-width="0.6" d=" M44.137001037597656,34.082000732421875 C43.13800048828125,35.823001861572266 42.71900177001953,37.26900100708008 42.56700134277344,38.14400100708008 C42.24399948120117,40.04600143432617 43.25199890136719,41.891998291015625 44.801998138427734,41.891998291015625 C46.67599868774414,41.891998291015625 47.141998291015625,40.66400146484375 46.91400146484375,39.61800003051758 C46.79999923706055,39.11399841308594 46.571998596191406,38.762001037597656 46.571998596191406,38.762001037597656 C48.09400177001953,36.527000427246094 48.874000549316406,33.61600112915039 47.93199920654297,31.790000915527344"></path></g></g><g opacity="1" transform="matrix(1,0,0,1,39.61800003051758,30.077999114990234)"><g opacity="1" transform="matrix(1,0,0,1,-39.33100128173828,-29.12299919128418)"><path fill="rgb(255,202,2)" fill-opacity="1" d=" M40.49300003051758,25.691999435424805 C39.428001403808594,26.558000564575195 38.92300033569336,26.54800033569336 38.172000885009766,26.59600067138672 C38.172000885009766,26.59600067138672 39.33300018310547,31.941999435424805 39.33300018310547,31.941999435424805 C41.44499969482422,31.275999069213867 42.32899856567383,30.163000106811523 42.58599853515625,29.231000900268555 C43.02399826049805,27.594999313354492 42.26300048828125,26.045000076293945 41.520999908447266,25.549999237060547 C41.27399826049805,25.38800048828125 40.9119987487793,25.350000381469727 40.49300003051758,25.691999435424805"></path></g><g opacity="1" transform="matrix(1,0,0,1,-39.33100128173828,-29.12299919128418)"><path stroke-linecap="butt" stroke-linejoin="round" fill-opacity="0" stroke="rgb(33,30,31)" stroke-opacity="1" stroke-width="0.6" d=" M40.49300003051758,25.691999435424805 C39.428001403808594,26.558000564575195 38.92300033569336,26.54800033569336 38.172000885009766,26.59600067138672 C38.172000885009766,26.59600067138672 39.33300018310547,31.941999435424805 39.33300018310547,31.941999435424805 C41.44499969482422,31.275999069213867 42.32899856567383,30.163000106811523 42.58599853515625,29.231000900268555 C43.02399826049805,27.594999313354492 42.26300048828125,26.045000076293945 41.520999908447266,25.549999237060547 C41.27399826049805,25.38800048828125 40.9119987487793,25.350000381469727 40.49300003051758,25.691999435424805 C40.49300003051758,25.691999435424805 40.49300003051758,25.691999435424805 40.49300003051758,25.691999435424805z"></path></g><g opacity="1" transform="matrix(1,0,0,1,-39.33100128173828,-29.12299919128418)"><path fill="rgb(108,87,57)" fill-opacity="1" d=" M37.354000091552734,26.349000930786133 C38.15299987792969,26.17799949645996 39.428001403808594,26.52899932861328 39.999000549316406,29.145000457763672 C40.560001373291016,31.750999450683594 39.542999267578125,32.608001708984375 38.75299835205078,32.77899932861328 C37.95399856567383,32.95000076293945 36.67900085449219,32.597999572753906 36.108001708984375,29.98200035095215 C35.547000885009766,27.375999450683594 36.56399917602539,26.520000457763672 37.354000091552734,26.349000930786133"></path></g><g opacity="1" transform="matrix(1,0,0,1,-39.33100128173828,-29.12299919128418)"><path fill="rgb(255,202,2)" fill-opacity="1" d=" M38.88600158691406,26.024999618530273 C39.62799835205078,25.863000869750977 40.82600021362305,26.243999481201172 41.387001037597656,28.850000381469727 C41.948001861572266,31.45599937438965 41.016998291015625,32.29399871826172 40.275001525878906,32.45600128173828 C39.53300094604492,32.61800003051758 38.33399963378906,32.236000061035156 37.77299880981445,29.6299991607666 C37.21200180053711,27.02400016784668 38.14400100708008,26.187000274658203 38.88600158691406,26.024999618530273"></path></g><g opacity="1" transform="matrix(1,0,0,1,-39.33100128173828,-29.12299919128418)"><path stroke-linecap="butt" stroke-linejoin="miter" fill-opacity="0" stroke-miterlimit="10" stroke="rgb(33,30,31)" stroke-opacity="1" stroke-width="0.6" d=" M38.88600158691406,26.024999618530273 C39.62799835205078,25.863000869750977 40.82600021362305,26.243999481201172 41.387001037597656,28.850000381469727 C41.948001861572266,31.45599937438965 41.016998291015625,32.29399871826172 40.275001525878906,32.45600128173828 C39.53300094604492,32.61800003051758 38.33399963378906,32.236000061035156 37.77299880981445,29.6299991607666 C37.21200180053711,27.02400016784668 38.14400100708008,26.187000274658203 38.88600158691406,26.024999618530273 C38.88600158691406,26.024999618530273 38.88600158691406,26.024999618530273 38.88600158691406,26.024999618530273z"></path></g><g opacity="1" transform="matrix(1,0,0,1,-39.33100128173828,-29.12299919128418)"><path stroke-linecap="butt" stroke-linejoin="round" fill-opacity="0" stroke="rgb(33,30,31)" stroke-opacity="1" stroke-width="0.6" d=" M37.354000091552734,26.349000930786133 C37.354000091552734,26.349000930786133 38.75299835205078,26.04400062561035 38.75299835205078,26.04400062561035 C39.551998138427734,25.87299919128418 40.82600021362305,26.225000381469727 41.39699935913086,28.840999603271484 C41.95800018310547,31.44700050354004 40.941001892089844,32.30400085449219 40.1510009765625,32.474998474121094 C40.1510009765625,32.474998474121094 38.75299835205078,32.77899932861328 38.75299835205078,32.77899932861328 C37.95399856567383,32.95000076293945 36.67900085449219,32.597999572753906 36.108001708984375,29.98200035095215 C35.547000885009766,27.375999450683594 36.56399917602539,26.520000457763672 37.354000091552734,26.349000930786133 C37.354000091552734,26.349000930786133 37.354000091552734,26.349000930786133 37.354000091552734,26.349000930786133z"></path></g></g><g opacity="1" transform="matrix(1,0,0,1,23.395999908447266,45.52399444580078)"><g opacity="1" transform="matrix(1,0,0,1,-26.101999282836914,-43.38800048828125)"><path fill="rgb(240,102,134)" fill-opacity="1" d=" M35.95199966430664,32.194000244140625 C31.840999603271484,31.243999481201172 28.83300018310547,32.79899978637695 26.15399932861328,35.3129997253418 C26.143999099731445,35.30400085449219 26.125999450683594,35.29499816894531 26.115999221801758,35.2760009765625 C26.106000900268555,35.28499984741211 26.086999893188477,35.29399871826172 26.07699966430664,35.3129997253418 C23.406999588012695,32.808998107910156 20.39900016784668,31.243999481201172 16.27899932861328,32.194000244140625 C11.364999771118164,33.33000183105469 10.21399974822998,38.935001373291016 11.17199993133545,43.27299880981445 C12.032999992370605,47.165000915527344 15.949999809265137,52.9370002746582 21.666000366210938,54.86399841308594 C22.458999633789062,54.80799865722656 23.261999130249023,54.770999908447266 24.05500030517578,54.74300003051758 C25.41900062561035,54.70600128173828 26.783000946044922,54.70600128173828 28.14699935913086,54.74300003051758 C28.950000762939453,54.770999908447266 29.743000030517578,54.80799865722656 30.535999298095703,54.86399841308594 C36.25199890136719,52.9370002746582 40.16899871826172,47.165000915527344 41.029998779296875,43.27299880981445 C41.987998962402344,38.935001373291016 40.84600067138672,33.33000183105469 35.92300033569336,32.194000244140625"></path></g><g opacity="1" transform="matrix(1,0,0,1,-26.101999282836914,-43.38800048828125)"><path stroke-linecap="round" stroke-linejoin="round" fill-opacity="0" stroke="rgb(33,30,31)" stroke-opacity="1" stroke-width="0.6" d=" M35.95199966430664,32.194000244140625 C31.840999603271484,31.243999481201172 28.83300018310547,32.79899978637695 26.15399932861328,35.3129997253418 C26.143999099731445,35.30400085449219 26.125999450683594,35.29499816894531 26.115999221801758,35.2760009765625 C26.106000900268555,35.28499984741211 26.086999893188477,35.29399871826172 26.07699966430664,35.3129997253418 C23.406999588012695,32.808998107910156 20.39900016784668,31.243999481201172 16.27899932861328,32.194000244140625 C11.364999771118164,33.33000183105469 10.21399974822998,38.935001373291016 11.17199993133545,43.27299880981445 C12.032999992370605,47.165000915527344 15.949999809265137,52.9370002746582 21.666000366210938,54.86399841308594 C22.458999633789062,54.80799865722656 23.261999130249023,54.770999908447266 24.05500030517578,54.74300003051758 C25.41900062561035,54.70600128173828 26.783000946044922,54.70600128173828 28.14699935913086,54.74300003051758 C28.950000762939453,54.770999908447266 29.743000030517578,54.80799865722656 30.535999298095703,54.86399841308594 C36.25199890136719,52.9370002746582 40.16899871826172,47.165000915527344 41.029998779296875,43.27299880981445 C41.987998962402344,38.935001373291016 40.84600067138672,33.33000183105469 35.92300033569336,32.194000244140625 C35.92300033569336,32.194000244140625 35.95199966430664,32.194000244140625 35.95199966430664,32.194000244140625z"></path></g></g><g opacity="1" transform="matrix(1,0,0,1,-2.7950000762939453,0)"><path stroke-linecap="round" stroke-linejoin="round" fill-opacity="0" stroke="rgb(33,30,31)" stroke-opacity="1" stroke-width="0.8" d=" M18.715999603271484,57.319000244140625 C23.638999938964844,56.709999084472656 28.621000289916992,56.709999084472656 33.54399871826172,57.319000244140625"></path></g><g opacity="1" transform="matrix(1,0,0,1,29.038999557495117,32.042999267578125)"><g opacity="1" transform="matrix(1,0,0,1,-28.75200080871582,-31.089000701904297)"><path fill="rgb(255,202,2)" fill-opacity="1" d=" M26.26300048828125,28.583999633789062 C27.527999877929688,28.850000381469727 28.364999771118164,28.697999954223633 29.0310001373291,28.393999099731445 C29.42099952697754,30.15399932861328 29.802000045776367,31.90399932861328 30.191999435424805,33.66400146484375 C28.099000930786133,34.05400085449219 26.490999221801758,33.39699935913086 25.892000198364258,32.683998107910156 C24.854999542236328,31.44700050354004 24.882999420166016,29.715999603271484 25.320999145507812,28.93600082397461 C25.464000701904297,28.679000854492188 25.76799964904785,28.479000091552734 26.26300048828125,28.583999633789062"></path></g><g opacity="1" transform="matrix(1,0,0,1,-28.75200080871582,-31.089000701904297)"><path stroke-linecap="butt" stroke-linejoin="round" fill-opacity="0" stroke="rgb(33,30,31)" stroke-opacity="1" stroke-width="2.06" d=" M26.26300048828125,28.583999633789062 C27.527999877929688,28.850000381469727 28.364999771118164,28.697999954223633 29.0310001373291,28.393999099731445 C29.42099952697754,30.15399932861328 29.802000045776367,31.90399932861328 30.191999435424805,33.66400146484375 C28.099000930786133,34.05400085449219 26.490999221801758,33.39699935913086 25.892000198364258,32.683998107910156 C24.854999542236328,31.44700050354004 24.882999420166016,29.715999603271484 25.320999145507812,28.93600082397461 C25.464000701904297,28.679000854492188 25.76799964904785,28.479000091552734 26.26300048828125,28.583999633789062 C26.26300048828125,28.583999633789062 26.26300048828125,28.583999633789062 26.26300048828125,28.583999633789062z"></path></g><g opacity="1" transform="matrix(1,0,0,1,-28.75200080871582,-31.089000701904297)"><path fill="rgb(108,87,57)" fill-opacity="1" d=" M29.659000396728516,27.708999633789062 C28.860000610351562,27.8799991607666 27.841999053955078,28.73699951171875 28.413000106811523,31.343000411987305 C28.974000930786133,33.94900131225586 30.257999420166016,34.310001373291016 31.05699920654297,34.138999938964844 C31.856000900268555,33.96799850463867 32.874000549316406,33.11199951171875 32.303001403808594,30.506000518798828 C31.742000579833984,27.899999618530273 30.45800018310547,27.538000106811523 29.659000396728516,27.708999633789062"></path></g><g opacity="1" transform="matrix(1,0,0,1,-28.75200080871582,-31.089000701904297)"><path fill="rgb(255,202,2)" fill-opacity="1" d=" M28.128000259399414,28.04199981689453 C27.38599967956543,28.20400047302246 26.45400047302246,29.041000366210938 27.014999389648438,31.64699935913086 C27.576000213623047,34.25299835205078 28.77400016784668,34.63399887084961 29.516000747680664,34.47200012207031 C30.257999420166016,34.310001373291016 31.190000534057617,33.472999572753906 30.628999710083008,30.867000579833984 C30.06800079345703,28.26099967956543 28.8700008392334,27.8799991607666 28.128000259399414,28.04199981689453"></path></g><g opacity="1" transform="matrix(1,0,0,1,-28.75200080871582,-31.089000701904297)"><path stroke-linecap="butt" stroke-linejoin="miter" fill-opacity="0" stroke-miterlimit="10" stroke="rgb(33,30,31)" stroke-opacity="1" stroke-width="0.6" d=" M28.128000259399414,28.04199981689453 C27.38599967956543,28.20400047302246 26.45400047302246,29.041000366210938 27.014999389648438,31.64699935913086 C27.576000213623047,34.25299835205078 28.77400016784668,34.63399887084961 29.516000747680664,34.47200012207031 C30.257999420166016,34.310001373291016 31.190000534057617,33.472999572753906 30.628999710083008,30.867000579833984 C30.06800079345703,28.26099967956543 28.8700008392334,27.8799991607666 28.128000259399414,28.04199981689453 C28.128000259399414,28.04199981689453 28.128000259399414,28.04199981689453 28.128000259399414,28.04199981689453z"></path></g><g opacity="1" transform="matrix(1,0,0,1,-28.75200080871582,-31.089000701904297)"><path stroke-linecap="butt" stroke-linejoin="round" fill-opacity="0" stroke="rgb(33,30,31)" stroke-opacity="1" stroke-width="0.6" d=" M29.659000396728516,27.708999633789062 C29.659000396728516,27.708999633789062 28.26099967956543,28.01300048828125 28.26099967956543,28.01300048828125 C27.461999893188477,28.18400001525879 26.444000244140625,29.041000366210938 27.014999389648438,31.64699935913086 C27.576000213623047,34.25299835205078 28.860000610351562,34.6150016784668 29.659000396728516,34.444000244140625 C29.659000396728516,34.444000244140625 31.05699920654297,34.138999938964844 31.05699920654297,34.138999938964844 C31.856000900268555,33.96799850463867 32.874000549316406,33.11199951171875 32.303001403808594,30.506000518798828 C31.742000579833984,27.899999618530273 30.45800018310547,27.538000106811523 29.659000396728516,27.708999633789062 C29.659000396728516,27.708999633789062 29.659000396728516,27.708999633789062 29.659000396728516,27.708999633789062z"></path></g></g><g opacity="1" transform="matrix(0.9743700623512268,-0.22495105862617493,0.22495105862617493,0.9743700623512268,26.475000381469727,32.391998291015625)"><g opacity="1" transform="matrix(1,0,0,1,-26.327999114990234,-30.735000610351562)"><path fill="rgb(255,255,255)" fill-opacity="1" d=" M24.740999221801758,28.023000717163086 C23.618999481201172,27.128999710083008 23.323999404907227,25.378999710083008 24.218000411987305,24.73200035095215 C24.770000457763672,24.332000732421875 25.235000610351562,24.445999145507812 25.67300033569336,24.884000778198242 C25.948999404907227,25.15999984741211 26.167999267578125,25.482999801635742 26.452999114990234,25.749000549316406 C26.80500030517578,26.062999725341797 27.214000701904297,26.091999053955078 27.632999420166016,26.281999588012695 C29.525999069213867,27.128999710083008 28.993000030517578,30.43899917602539 28.621999740600586,32.987998962402344 C28.1560001373291,36.202999114990234 26.920000076293945,37.17399978637695 25.569000244140625,36.95500183105469 C23.628999710083008,36.6510009765625 23.513999938964844,34.64400100708008 23.742000579833984,32.55099868774414 C24.065000534057617,29.621000289916992 24.740999221801758,28.031999588012695 24.740999221801758,28.031999588012695"></path></g><g opacity="1" transform="matrix(1,0,0,1,-26.327999114990234,-30.735000610351562)"><path fill="rgb(252,210,184)" fill-opacity="1" d=" M27.632999420166016,26.273000717163086 C27.128999710083008,26.045000076293945 26.937999725341797,26.233999252319336 26.082000732421875,25.711000442504883 C25.548999786376953,25.38800048828125 25.520999908447266,24.35099983215332 24.218000411987305,24.722000122070312 C23.447999954223633,24.94099998474121 23.600000381469727,27.35700035095215 24.740999221801758,28.01300048828125 C25.93000030517578,28.354999542236328 27.527999877929688,28.718000411987305 28.954999923706055,28.280000686645508 C29.163999557495117,27.2810001373291 28.60300064086914,26.701000213623047 27.642000198364258,26.26300048828125"></path></g><g opacity="1" transform="matrix(1,0,0,1,-26.327999114990234,-30.735000610351562)"><path stroke-linecap="round" stroke-linejoin="round" fill-opacity="0" stroke="rgb(33,30,31)" stroke-opacity="1" stroke-width="0.6" d=" M24.740999221801758,28.023000717163086 C23.618999481201172,27.128999710083008 23.323999404907227,25.378999710083008 24.218000411987305,24.73200035095215 C24.770000457763672,24.332000732421875 25.235000610351562,24.445999145507812 25.67300033569336,24.884000778198242 C25.948999404907227,25.15999984741211 26.167999267578125,25.482999801635742 26.452999114990234,25.749000549316406 C26.80500030517578,26.062999725341797 27.214000701904297,26.091999053955078 27.632999420166016,26.281999588012695 C29.525999069213867,27.128999710083008 28.993000030517578,30.43899917602539 28.621999740600586,32.987998962402344 C28.1560001373291,36.202999114990234 26.920000076293945,37.17399978637695 25.569000244140625,36.95500183105469 C23.628999710083008,36.6510009765625 23.513999938964844,34.64400100708008 23.742000579833984,32.55099868774414 C24.065000534057617,29.621000289916992 24.740999221801758,28.031999588012695 24.740999221801758,28.031999588012695 C24.740999221801758,28.031999588012695 24.740999221801758,28.023000717163086 24.740999221801758,28.023000717163086z"></path></g></g></g><g transform="matrix(1,0,0,1,26.726999282836914,17.391000747680664)" opacity="1" style="display: block;"><path fill="rgb(33,30,31)" fill-opacity="1" d=" M4.632999897003174,2.5769999027252197 C4.039000034332275,2.4179999828338623 3.819000005722046,3.1019999980926514 3.819000005722046,3.1019999980926514 C3.819000005722046,3.1019999980926514 3.819000005722046,3.1059999465942383 3.819000005722046,3.1059999465942383 C3.819000005722046,3.1059999465942383 3.374000072479248,2.5369999408721924 2.874000072479248,2.8919999599456787 C2.3959999084472656,3.2320001125335693 2.6500000953674316,3.9200000762939453 3.0260000228881836,4.205999851226807 C3.3259999752044678,4.438000202178955 3.8559999465942383,4.684000015258789 4.0329999923706055,4.73799991607666 C4.072999954223633,4.749000072479248 4.111999988555908,4.742000102996826 4.1479997634887695,4.7170000076293945 C4.296000003814697,4.605000019073486 4.760000228881836,4.163000106811523 4.952000141143799,3.8550000190734863 C5.202000141143799,3.453000068664551 5.204999923706055,2.7290000915527344 4.63700008392334,2.5769999027252197"></path></g><g transform="matrix(1,0,0,1,32.58700180053711,16.26799964904785)" opacity="1" style="display: block;"><path fill="rgb(33,30,31)" fill-opacity="1" d=" M4.632999897003174,2.5769999027252197 C4.039000034332275,2.4179999828338623 3.819000005722046,3.1019999980926514 3.819000005722046,3.1019999980926514 C3.819000005722046,3.1019999980926514 3.819000005722046,3.1059999465942383 3.819000005722046,3.1059999465942383 C3.819000005722046,3.1059999465942383 3.374000072479248,2.5369999408721924 2.874000072479248,2.8919999599456787 C2.3959999084472656,3.2320001125335693 2.6500000953674316,3.9200000762939453 3.0260000228881836,4.205999851226807 C3.3259999752044678,4.438000202178955 3.8559999465942383,4.684000015258789 4.0329999923706055,4.73799991607666 C4.072999954223633,4.749000072479248 4.111999988555908,4.742000102996826 4.1479997634887695,4.7170000076293945 C4.296000003814697,4.605000019073486 4.760000228881836,4.163000106811523 4.952000141143799,3.8550000190734863 C5.202000141143799,3.453000068664551 5.204999923706055,2.7290000915527344 4.63700008392334,2.5769999027252197"></path></g><g transform="matrix(0.9659258127212524,-0.258819043636322,0.258819043636322,0.9659258127212524,24.7549991607666,37.07699966430664)" opacity="1" style="display: block;"><path fill="rgb(240,102,134)" fill-opacity="1" d=" M0.3700000047683716,4.281000137329102 C0.3700000047683716,4.281000137329102 3.3440001010894775,3.921999931335449 4.757999897003174,6.370999813079834"></path><path stroke-linecap="round" stroke-linejoin="round" fill-opacity="0" stroke="rgb(33,30,31)" stroke-opacity="1" stroke-width="0.6" d=" M0.3700000047683716,4.281000137329102 C0.3700000047683716,4.281000137329102 3.3440001010894775,3.921999931335449 4.757999897003174,6.370999813079834"></path></g><g transform="matrix(0.9961951971054077,-0.08715031296014786,0.08715031296014786,0.9961951971054077,25.923389434814453,24.420021057128906)" opacity="1" style="display: block;"><path fill="rgb(255,255,255)" fill-opacity="1" d=" M1.722000002861023,1.6080000400543213 C1.722000002861023,1.6080000400543213 4.671000003814697,1.4110000133514404 5.793000221252441,5.492000102996826"></path><path stroke-linecap="round" stroke-linejoin="round" fill-opacity="0" stroke="rgb(33,30,31)" stroke-opacity="1" stroke-width="0.6" d=" M1.722000002861023,1.6080000400543213 C1.722000002861023,1.6080000400543213 4.671000003814697,1.4110000133514404 5.793000221252441,5.492000102996826"></path></g></g></svg>