<svg xmlns="http://www.w3.org/2000/svg" viewBox="0 0 160 160" width="160" height="160" preserveAspectRatio="xMidYMid meet" style="width: 100%; height: 100%; transform: translate3d(0px, 0px, 0px); content-visibility: visible;"><defs><clipPath id="__lottie_element_17"><rect width="160" height="160" x="0" y="0"></rect></clipPath><mask id="__lottie_element_30" mask-type="alpha"><g clip-path="url(#__lottie_element_31)" transform="matrix(1,0,0,1,-100000,-100000)" opacity="1" style="display: block;"><g transform="matrix(1,0,0,1,100000,100000)" opacity="1" style="display: block;"><g opacity="1" transform="matrix(1,0,0,1,0,0)"><path fill="rgb(255,255,255)" fill-opacity="1" d=" M115.07499694824219,103.02899932861328 C115.07499694824219,103.02899932861328 115.07499694824219,46.62200164794922 115.07499694824219,46.62200164794922 C115.07499694824219,28.840999603271484 100.66000366210938,14.425999641418457 82.87799835205078,14.425999641418457 C82.87799835205078,14.425999641418457 71.19100189208984,14.425999641418457 71.19100189208984,14.425999641418457 C53.40999984741211,14.425999641418457 38.994998931884766,28.840999603271484 38.994998931884766,46.62200164794922 C38.994998931884766,46.62200164794922 38.994998931884766,103.02899932861328 38.994998931884766,103.02899932861328 C38.994998931884766,120.81099700927734 53.40999984741211,135.22500610351562 71.19100189208984,135.22500610351562 C71.19100189208984,135.22500610351562 82.87799835205078,135.22500610351562 82.87799835205078,135.22500610351562 C100.66000366210938,135.22500610351562 115.07499694824219,120.81099700927734 115.07499694824219,103.02899932861328"></path></g></g><g transform="matrix(1,0,0,1,100000,100000)" opacity="1" style="display: block;"></g></g></mask><clipPath id="__lottie_element_31"><path d="M0,0 L200000,0 L200000,200000 L0,200000z"></path></clipPath><clipPath id="__lottie_element_41"><path d="M0,0 L200000,0 L200000,200000 L0,200000z"></path></clipPath><mask id="__lottie_element_50" mask-type="alpha"><g clip-path="url(#__lottie_element_51)" transform="matrix(1,0,0,1,-100000,-100000)" opacity="1" style="display: block;"><g transform="matrix(1,0,0,1,100000,100000)" opacity="1" style="display: block;"><g opacity="1" transform="matrix(1,0,0,1,0,0)"><path fill="rgb(255,255,255)" fill-opacity="1" d=" M115.07499694824219,103.02899932861328 C115.07499694824219,103.02899932861328 115.07499694824219,46.62200164794922 115.07499694824219,46.62200164794922 C115.07499694824219,28.840999603271484 100.66000366210938,14.425999641418457 82.87799835205078,14.425999641418457 C82.87799835205078,14.425999641418457 71.19100189208984,14.425999641418457 71.19100189208984,14.425999641418457 C53.40999984741211,14.425999641418457 38.994998931884766,28.840999603271484 38.994998931884766,46.62200164794922 C38.994998931884766,46.62200164794922 38.994998931884766,103.02899932861328 38.994998931884766,103.02899932861328 C38.994998931884766,120.81099700927734 53.40999984741211,135.22500610351562 71.19100189208984,135.22500610351562 C71.19100189208984,135.22500610351562 82.87799835205078,135.22500610351562 82.87799835205078,135.22500610351562 C100.66000366210938,135.22500610351562 115.07499694824219,120.81099700927734 115.07499694824219,103.02899932861328"></path></g></g><g transform="matrix(1,0,0,1,100000,100000)" opacity="1" style="display: block;"></g></g></mask><clipPath id="__lottie_element_51"><path d="M0,0 L200000,0 L200000,200000 L0,200000z"></path></clipPath><clipPath id="__lottie_element_61"><path d="M0,0 L200000,0 L200000,200000 L0,200000z"></path></clipPath><mask id="__lottie_element_70" mask-type="alpha"><g clip-path="url(#__lottie_element_71)" transform="matrix(1,0,0,1,-100000,-100000)" opacity="1" style="display: block;"><g transform="matrix(1,0,0,1,100000,100000)" opacity="1" style="display: block;"><g opacity="1" transform="matrix(1,0,0,1,0,0)"><path fill="rgb(255,255,255)" fill-opacity="1" d=" M115.07499694824219,103.02899932861328 C115.07499694824219,103.02899932861328 115.07499694824219,46.62200164794922 115.07499694824219,46.62200164794922 C115.07499694824219,28.840999603271484 100.66000366210938,14.425999641418457 82.87799835205078,14.425999641418457 C82.87799835205078,14.425999641418457 71.19100189208984,14.425999641418457 71.19100189208984,14.425999641418457 C53.40999984741211,14.425999641418457 38.994998931884766,28.840999603271484 38.994998931884766,46.62200164794922 C38.994998931884766,46.62200164794922 38.994998931884766,103.02899932861328 38.994998931884766,103.02899932861328 C38.994998931884766,120.81099700927734 53.40999984741211,135.22500610351562 71.19100189208984,135.22500610351562 C71.19100189208984,135.22500610351562 82.87799835205078,135.22500610351562 82.87799835205078,135.22500610351562 C100.66000366210938,135.22500610351562 115.07499694824219,120.81099700927734 115.07499694824219,103.02899932861328"></path></g></g><g transform="matrix(1,0,0,1,100000,100000)" opacity="1" style="display: block;"></g></g></mask><clipPath id="__lottie_element_71"><path d="M0,0 L200000,0 L200000,200000 L0,200000z"></path></clipPath><clipPath id="__lottie_element_81"><path d="M0,0 L200000,0 L200000,200000 L0,200000z"></path></clipPath><mask id="__lottie_element_90" mask-type="alpha"><g clip-path="url(#__lottie_element_91)" transform="matrix(1,0,0,1,-100000,-100000)" opacity="1" style="display: block;"><g transform="matrix(1,0,0,1,100000,100000)" opacity="1" style="display: block;"><g opacity="1" transform="matrix(1,0,0,1,0,0)"><path fill="rgb(255,255,255)" fill-opacity="1" d=" M115.07499694824219,103.02899932861328 C115.07499694824219,103.02899932861328 115.07499694824219,46.62200164794922 115.07499694824219,46.62200164794922 C115.07499694824219,28.840999603271484 100.66000366210938,14.425999641418457 82.87799835205078,14.425999641418457 C82.87799835205078,14.425999641418457 71.19100189208984,14.425999641418457 71.19100189208984,14.425999641418457 C53.40999984741211,14.425999641418457 38.994998931884766,28.840999603271484 38.994998931884766,46.62200164794922 C38.994998931884766,46.62200164794922 38.994998931884766,103.02899932861328 38.994998931884766,103.02899932861328 C38.994998931884766,120.81099700927734 53.40999984741211,135.22500610351562 71.19100189208984,135.22500610351562 C71.19100189208984,135.22500610351562 82.87799835205078,135.22500610351562 82.87799835205078,135.22500610351562 C100.66000366210938,135.22500610351562 115.07499694824219,120.81099700927734 115.07499694824219,103.02899932861328"></path></g></g><g transform="matrix(1,0,0,1,100000,100000)" opacity="1" style="display: block;"></g></g></mask><clipPath id="__lottie_element_91"><path d="M0,0 L200000,0 L200000,200000 L0,200000z"></path></clipPath><clipPath id="__lottie_element_101"><path d="M0,0 L200000,0 L200000,200000 L0,200000z"></path></clipPath><mask id="__lottie_element_116" mask-type="alpha"><g clip-path="url(#__lottie_element_117)" transform="matrix(1,0,0,1,-99922.96875,-99925.171875)" opacity="1" style="display: block;"><g transform="matrix(1,0,0,1,99922.96875,99925.171875)" opacity="1" style="display: block;"><g opacity="1" transform="matrix(1,0,0,1,0,0)"><path fill="rgb(255,255,255)" fill-opacity="1" d=" M115.07499694824219,103.02899932861328 C115.07499694824219,103.02899932861328 115.07499694824219,46.62200164794922 115.07499694824219,46.62200164794922 C115.07499694824219,28.840999603271484 100.66000366210938,14.425999641418457 82.87799835205078,14.425999641418457 C82.87799835205078,14.425999641418457 71.19100189208984,14.425999641418457 71.19100189208984,14.425999641418457 C53.40999984741211,14.425999641418457 38.994998931884766,28.840999603271484 38.994998931884766,46.62200164794922 C38.994998931884766,46.62200164794922 38.994998931884766,103.02899932861328 38.994998931884766,103.02899932861328 C38.994998931884766,120.81099700927734 53.40999984741211,135.22500610351562 71.19100189208984,135.22500610351562 C71.19100189208984,135.22500610351562 82.87799835205078,135.22500610351562 82.87799835205078,135.22500610351562 C100.66000366210938,135.22500610351562 115.07499694824219,120.81099700927734 115.07499694824219,103.02899932861328"></path></g></g><g transform="matrix(1,0,0,1,100000,100000)" opacity="1" style="display: block;"></g></g></mask><clipPath id="__lottie_element_117"><path d="M0,0 L200000,0 L200000,200000 L0,200000z"></path></clipPath><clipPath id="__lottie_element_127"><path d="M0,0 L200000,0 L200000,200000 L0,200000z"></path></clipPath><mask id="__lottie_element_139" mask-type="alpha"><g clip-path="url(#__lottie_element_140)" transform="matrix(1,0,0,1,-99922.96875,-99925.171875)" opacity="1" style="display: block;"><g transform="matrix(1,0,0,1,99922.96875,99925.171875)" opacity="1" style="display: block;"><g opacity="1" transform="matrix(1,0,0,1,0,0)"><path fill="rgb(255,255,255)" fill-opacity="1" d=" M115.07499694824219,103.02899932861328 C115.07499694824219,103.02899932861328 115.07499694824219,46.62200164794922 115.07499694824219,46.62200164794922 C115.07499694824219,28.840999603271484 100.66000366210938,14.425999641418457 82.87799835205078,14.425999641418457 C82.87799835205078,14.425999641418457 71.19100189208984,14.425999641418457 71.19100189208984,14.425999641418457 C53.40999984741211,14.425999641418457 38.994998931884766,28.840999603271484 38.994998931884766,46.62200164794922 C38.994998931884766,46.62200164794922 38.994998931884766,103.02899932861328 38.994998931884766,103.02899932861328 C38.994998931884766,120.81099700927734 53.40999984741211,135.22500610351562 71.19100189208984,135.22500610351562 C71.19100189208984,135.22500610351562 82.87799835205078,135.22500610351562 82.87799835205078,135.22500610351562 C100.66000366210938,135.22500610351562 115.07499694824219,120.81099700927734 115.07499694824219,103.02899932861328"></path></g></g><g transform="matrix(1,0,0,1,100000,100000)" opacity="1" style="display: block;"></g></g></mask><clipPath id="__lottie_element_140"><path d="M0,0 L200000,0 L200000,200000 L0,200000z"></path></clipPath><clipPath id="__lottie_element_150"><path d="M0,0 L200000,0 L200000,200000 L0,200000z"></path></clipPath><mask id="__lottie_element_168" mask-type="alpha"><g clip-path="url(#__lottie_element_169)" transform="matrix(1,0,0,1,-100000,-100000)" opacity="1" style="display: block;"><g transform="matrix(1,0,0,1,100000,100000)" opacity="1" style="display: block;"><g opacity="1" transform="matrix(1,0,0,1,0,0)"><path fill="rgb(255,255,255)" fill-opacity="1" d=" M115.07499694824219,103.02899932861328 C115.07499694824219,103.02899932861328 115.07499694824219,46.62200164794922 115.07499694824219,46.62200164794922 C115.07499694824219,28.840999603271484 100.66000366210938,14.425999641418457 82.87799835205078,14.425999641418457 C82.87799835205078,14.425999641418457 71.19100189208984,14.425999641418457 71.19100189208984,14.425999641418457 C53.40999984741211,14.425999641418457 38.994998931884766,28.840999603271484 38.994998931884766,46.62200164794922 C38.994998931884766,46.62200164794922 38.994998931884766,103.02899932861328 38.994998931884766,103.02899932861328 C38.994998931884766,120.81099700927734 53.40999984741211,135.22500610351562 71.19100189208984,135.22500610351562 C71.19100189208984,135.22500610351562 82.87799835205078,135.22500610351562 82.87799835205078,135.22500610351562 C100.66000366210938,135.22500610351562 115.07499694824219,120.81099700927734 115.07499694824219,103.02899932861328"></path></g></g><g transform="matrix(1,0,0,1,100000,100000)" opacity="1" style="display: block;"></g></g></mask><clipPath id="__lottie_element_169"><path d="M0,0 L200000,0 L200000,200000 L0,200000z"></path></clipPath><clipPath id="__lottie_element_179"><path d="M0,0 L200000,0 L200000,200000 L0,200000z"></path></clipPath><mask id="__lottie_element_188" mask-type="alpha"><g clip-path="url(#__lottie_element_189)" transform="matrix(1,0,0,1,-100000,-100000)" opacity="1" style="display: block;"><g transform="matrix(1,0,0,1,100000,100000)" opacity="1" style="display: block;"><g opacity="1" transform="matrix(1,0,0,1,0,0)"><path fill="rgb(255,255,255)" fill-opacity="1" d=" M115.07499694824219,103.02899932861328 C115.07499694824219,103.02899932861328 115.07499694824219,46.62200164794922 115.07499694824219,46.62200164794922 C115.07499694824219,28.840999603271484 100.66000366210938,14.425999641418457 82.87799835205078,14.425999641418457 C82.87799835205078,14.425999641418457 71.19100189208984,14.425999641418457 71.19100189208984,14.425999641418457 C53.40999984741211,14.425999641418457 38.994998931884766,28.840999603271484 38.994998931884766,46.62200164794922 C38.994998931884766,46.62200164794922 38.994998931884766,103.02899932861328 38.994998931884766,103.02899932861328 C38.994998931884766,120.81099700927734 53.40999984741211,135.22500610351562 71.19100189208984,135.22500610351562 C71.19100189208984,135.22500610351562 82.87799835205078,135.22500610351562 82.87799835205078,135.22500610351562 C100.66000366210938,135.22500610351562 115.07499694824219,120.81099700927734 115.07499694824219,103.02899932861328"></path></g></g><g transform="matrix(1,0,0,1,100000,100000)" opacity="1" style="display: block;"></g></g></mask><clipPath id="__lottie_element_189"><path d="M0,0 L200000,0 L200000,200000 L0,200000z"></path></clipPath><clipPath id="__lottie_element_199"><path d="M0,0 L200000,0 L200000,200000 L0,200000z"></path></clipPath><mask id="__lottie_element_208" mask-type="alpha"><g clip-path="url(#__lottie_element_209)" transform="matrix(1,0,0,1,-100000,-100000)" opacity="1" style="display: block;"><g transform="matrix(1,0,0,1,100000,100000)" opacity="1" style="display: block;"><g opacity="1" transform="matrix(1,0,0,1,0,0)"><path fill="rgb(255,255,255)" fill-opacity="1" d=" M115.07499694824219,103.02899932861328 C115.07499694824219,103.02899932861328 115.07499694824219,46.62200164794922 115.07499694824219,46.62200164794922 C115.07499694824219,28.840999603271484 100.66000366210938,14.425999641418457 82.87799835205078,14.425999641418457 C82.87799835205078,14.425999641418457 71.19100189208984,14.425999641418457 71.19100189208984,14.425999641418457 C53.40999984741211,14.425999641418457 38.994998931884766,28.840999603271484 38.994998931884766,46.62200164794922 C38.994998931884766,46.62200164794922 38.994998931884766,103.02899932861328 38.994998931884766,103.02899932861328 C38.994998931884766,120.81099700927734 53.40999984741211,135.22500610351562 71.19100189208984,135.22500610351562 C71.19100189208984,135.22500610351562 82.87799835205078,135.22500610351562 82.87799835205078,135.22500610351562 C100.66000366210938,135.22500610351562 115.07499694824219,120.81099700927734 115.07499694824219,103.02899932861328"></path></g></g><g transform="matrix(1,0,0,1,100000,100000)" opacity="1" style="display: block;"></g></g></mask><clipPath id="__lottie_element_209"><path d="M0,0 L200000,0 L200000,200000 L0,200000z"></path></clipPath><clipPath id="__lottie_element_219"><path d="M0,0 L200000,0 L200000,200000 L0,200000z"></path></clipPath><mask id="__lottie_element_228" mask-type="alpha"><g clip-path="url(#__lottie_element_229)" transform="matrix(1,0,0,1,-100000,-100000)" opacity="1" style="display: block;"><g transform="matrix(1,0,0,1,100000,100000)" opacity="1" style="display: block;"><g opacity="1" transform="matrix(1,0,0,1,0,0)"><path fill="rgb(255,255,255)" fill-opacity="1" d=" M115.07499694824219,103.02899932861328 C115.07499694824219,103.02899932861328 115.07499694824219,46.62200164794922 115.07499694824219,46.62200164794922 C115.07499694824219,28.840999603271484 100.66000366210938,14.425999641418457 82.87799835205078,14.425999641418457 C82.87799835205078,14.425999641418457 71.19100189208984,14.425999641418457 71.19100189208984,14.425999641418457 C53.40999984741211,14.425999641418457 38.994998931884766,28.840999603271484 38.994998931884766,46.62200164794922 C38.994998931884766,46.62200164794922 38.994998931884766,103.02899932861328 38.994998931884766,103.02899932861328 C38.994998931884766,120.81099700927734 53.40999984741211,135.22500610351562 71.19100189208984,135.22500610351562 C71.19100189208984,135.22500610351562 82.87799835205078,135.22500610351562 82.87799835205078,135.22500610351562 C100.66000366210938,135.22500610351562 115.07499694824219,120.81099700927734 115.07499694824219,103.02899932861328"></path></g></g><g transform="matrix(1,0,0,1,100000,100000)" opacity="1" style="display: block;"></g></g></mask><clipPath id="__lottie_element_229"><path d="M0,0 L200000,0 L200000,200000 L0,200000z"></path></clipPath><clipPath id="__lottie_element_239"><path d="M0,0 L200000,0 L200000,200000 L0,200000z"></path></clipPath><mask id="__lottie_element_248" mask-type="alpha"><g clip-path="url(#__lottie_element_249)" transform="matrix(1,0,0,1,-100000,-100000)" opacity="1" style="display: block;"><g transform="matrix(1,0,0,1,100000,100000)" opacity="1" style="display: block;"><g opacity="1" transform="matrix(1,0,0,1,0,0)"><path fill="rgb(255,255,255)" fill-opacity="1" d=" M115.07499694824219,103.02899932861328 C115.07499694824219,103.02899932861328 115.07499694824219,46.62200164794922 115.07499694824219,46.62200164794922 C115.07499694824219,28.840999603271484 100.66000366210938,14.425999641418457 82.87799835205078,14.425999641418457 C82.87799835205078,14.425999641418457 71.19100189208984,14.425999641418457 71.19100189208984,14.425999641418457 C53.40999984741211,14.425999641418457 38.994998931884766,28.840999603271484 38.994998931884766,46.62200164794922 C38.994998931884766,46.62200164794922 38.994998931884766,103.02899932861328 38.994998931884766,103.02899932861328 C38.994998931884766,120.81099700927734 53.40999984741211,135.22500610351562 71.19100189208984,135.22500610351562 C71.19100189208984,135.22500610351562 82.87799835205078,135.22500610351562 82.87799835205078,135.22500610351562 C100.66000366210938,135.22500610351562 115.07499694824219,120.81099700927734 115.07499694824219,103.02899932861328"></path></g></g><g transform="matrix(1,0,0,1,100000,100000)" opacity="1" style="display: block;"></g></g></mask><clipPath id="__lottie_element_249"><path d="M0,0 L200000,0 L200000,200000 L0,200000z"></path></clipPath><clipPath id="__lottie_element_259"><path d="M0,0 L200000,0 L200000,200000 L0,200000z"></path></clipPath><mask id="__lottie_element_268" mask-type="alpha"><g clip-path="url(#__lottie_element_269)" transform="matrix(1,0,0,1,-100000,-100000)" opacity="1" style="display: block;"><g transform="matrix(1,0,0,1,100000,100000)" opacity="1" style="display: block;"><g opacity="1" transform="matrix(1,0,0,1,0,0)"><path fill="rgb(255,255,255)" fill-opacity="1" d=" M115.07499694824219,103.02899932861328 C115.07499694824219,103.02899932861328 115.07499694824219,46.62200164794922 115.07499694824219,46.62200164794922 C115.07499694824219,28.840999603271484 100.66000366210938,14.425999641418457 82.87799835205078,14.425999641418457 C82.87799835205078,14.425999641418457 71.19100189208984,14.425999641418457 71.19100189208984,14.425999641418457 C53.40999984741211,14.425999641418457 38.994998931884766,28.840999603271484 38.994998931884766,46.62200164794922 C38.994998931884766,46.62200164794922 38.994998931884766,103.02899932861328 38.994998931884766,103.02899932861328 C38.994998931884766,120.81099700927734 53.40999984741211,135.22500610351562 71.19100189208984,135.22500610351562 C71.19100189208984,135.22500610351562 82.87799835205078,135.22500610351562 82.87799835205078,135.22500610351562 C100.66000366210938,135.22500610351562 115.07499694824219,120.81099700927734 115.07499694824219,103.02899932861328"></path></g></g><g transform="matrix(1,0,0,1,100000,100000)" opacity="1" style="display: block;"></g></g></mask><clipPath id="__lottie_element_269"><path d="M0,0 L200000,0 L200000,200000 L0,200000z"></path></clipPath><clipPath id="__lottie_element_279"><path d="M0,0 L200000,0 L200000,200000 L0,200000z"></path></clipPath><mask id="__lottie_element_288" mask-type="alpha"><g clip-path="url(#__lottie_element_289)" transform="matrix(1,0,0,1,-100000,-100000)" opacity="1" style="display: block;"><g transform="matrix(1,0,0,1,100000,100000)" opacity="1" style="display: block;"><g opacity="1" transform="matrix(1,0,0,1,0,0)"><path fill="rgb(255,255,255)" fill-opacity="1" d=" M115.07499694824219,103.02899932861328 C115.07499694824219,103.02899932861328 115.07499694824219,46.62200164794922 115.07499694824219,46.62200164794922 C115.07499694824219,28.840999603271484 100.66000366210938,14.425999641418457 82.87799835205078,14.425999641418457 C82.87799835205078,14.425999641418457 71.19100189208984,14.425999641418457 71.19100189208984,14.425999641418457 C53.40999984741211,14.425999641418457 38.994998931884766,28.840999603271484 38.994998931884766,46.62200164794922 C38.994998931884766,46.62200164794922 38.994998931884766,103.02899932861328 38.994998931884766,103.02899932861328 C38.994998931884766,120.81099700927734 53.40999984741211,135.22500610351562 71.19100189208984,135.22500610351562 C71.19100189208984,135.22500610351562 82.87799835205078,135.22500610351562 82.87799835205078,135.22500610351562 C100.66000366210938,135.22500610351562 115.07499694824219,120.81099700927734 115.07499694824219,103.02899932861328"></path></g></g><g transform="matrix(1,0,0,1,100000,100000)" opacity="1" style="display: block;"></g></g></mask><clipPath id="__lottie_element_289"><path d="M0,0 L200000,0 L200000,200000 L0,200000z"></path></clipPath><clipPath id="__lottie_element_299"><path d="M0,0 L200000,0 L200000,200000 L0,200000z"></path></clipPath></defs><g clip-path="url(#__lottie_element_17)"><g transform="matrix(1,0,0,1,0,0)" opacity="1" style="display: block;"><g opacity="1" transform="matrix(1,0,0,1,0,0)"><path fill="rgb(255,255,255)" fill-opacity="0" d=" M160,0 C160,0 160,160 160,160 C160,160 0,160 0,160 C0,160 0,0 0,0 C0,0 160,0 160,0z"></path></g></g><g transform="matrix(1,0,0,1,0,0)" opacity="1" style="display: block;"><path fill="rgb(248,249,250)" fill-opacity="1" d=" M130.8179931640625,46.61199951171875 C130.8179931640625,46.61199951171875 130.8179931640625,103.01799774169922 130.8179931640625,103.01799774169922 C130.8179931640625,128.74400329589844 109.93199920654297,149.6300048828125 84.20600128173828,149.6300048828125 C84.20600128173828,149.6300048828125 69.73799896240234,149.6300048828125 69.73799896240234,149.6300048828125 C44.012001037597656,149.6300048828125 23.125999450683594,128.74400329589844 23.125999450683594,103.01799774169922 C23.125999450683594,103.01799774169922 23.125999450683594,46.61199951171875 23.125999450683594,46.61199951171875 C23.115999221801758,20.88599967956543 44.00199890136719,0 69.72799682617188,0 C69.72799682617188,0 84.19499969482422,0 84.19499969482422,0 C109.93199920654297,0 130.8179931640625,20.88599967956543 130.8179931640625,46.61199951171875"></path></g><g transform="matrix(1,0,0,1,0,0)" opacity="1" style="display: block;"><path fill="rgb(228,230,227)" fill-opacity="1" d=" M84.20600128173828,9.77299976348877 C84.20600128173828,9.77299976348877 69.73799896240234,9.77299976348877 69.73799896240234,9.77299976348877 C49.393001556396484,9.77299976348877 32.900001525878906,26.266000747680664 32.900001525878906,46.611000061035156 C32.900001525878906,46.611000061035156 32.900001525878906,103.01799774169922 32.900001525878906,103.01799774169922 C32.900001525878906,123.36299896240234 49.393001556396484,139.8560028076172 69.73799896240234,139.8560028076172 C69.73799896240234,139.8560028076172 84.20600128173828,139.8560028076172 84.20600128173828,139.8560028076172 C104.5510025024414,139.8560028076172 121.04299926757812,123.36299896240234 121.04299926757812,103.01799774169922 C121.04299926757812,103.01799774169922 121.04299926757812,46.611000061035156 121.04299926757812,46.611000061035156 C121.04299926757812,26.266000747680664 104.5510025024414,9.77299976348877 84.20600128173828,9.77299976348877"></path></g><g transform="matrix(1,0,0,1,0,0)" opacity="1" style="display: block;"><path fill="rgb(212,208,200)" fill-opacity="1" d=" M116.23500061035156,46.611000061035156 C116.23500061035156,46.611000061035156 116.23500061035156,103.01799774169922 116.23500061035156,103.01799774169922 C116.23500061035156,121.45700073242188 101.26599884033203,136.43699645996094 82.81500244140625,136.43699645996094 C82.81500244140625,136.43699645996094 71.11799621582031,136.43699645996094 71.11799621582031,136.43699645996094 C52.678001403808594,136.43699645996094 37.698001861572266,121.46800231933594 37.698001861572266,103.01799774169922 C37.698001861572266,103.01799774169922 37.698001861572266,46.611000061035156 37.698001861572266,46.611000061035156 C37.698001861572266,28.17099952697754 52.667999267578125,13.190999984741211 71.11799621582031,13.190999984741211 C71.11799621582031,13.190999984741211 82.81500244140625,13.190999984741211 82.81500244140625,13.190999984741211 C101.25499725341797,13.190999984741211 116.23500061035156,28.160999298095703 116.23500061035156,46.611000061035156"></path></g><g transform="matrix(1,0,0,1,0,0)" opacity="1" style="display: block;"><path fill="rgb(34,23,20)" fill-opacity="0.9" d=" M115.01200103759766,103.02899932861328 C115.01200103759766,103.02899932861328 115.01200103759766,46.62200164794922 115.01200103759766,46.62200164794922 C115.01200103759766,28.840999603271484 100.59700012207031,14.425999641418457 82.81500244140625,14.425999641418457 C82.81500244140625,14.425999641418457 71.12799835205078,14.425999641418457 71.12799835205078,14.425999641418457 C53.34700012207031,14.425999641418457 38.93199920654297,28.840999603271484 38.93199920654297,46.62200164794922 C38.93199920654297,46.62200164794922 38.93199920654297,103.02899932861328 38.93199920654297,103.02899932861328 C38.93199920654297,120.81099700927734 53.34700012207031,135.22500610351562 71.12799835205078,135.22500610351562 C71.12799835205078,135.22500610351562 82.81500244140625,135.22500610351562 82.81500244140625,135.22500610351562 C100.59700012207031,135.22500610351562 115.01200103759766,120.81099700927734 115.01200103759766,103.02899932861328"></path></g><g mask="url(#__lottie_element_288)" style="display: block;"><g clip-path="url(#__lottie_element_299)" transform="matrix(1,0,0,1,-100000,-100000)" opacity="1"><g transform="matrix(1,0,0,1,100000,100000)" opacity="1" style="display: block;"><g opacity="1" transform="matrix(1,0,0,1,0,0)"><path stroke-linecap="round" stroke-linejoin="round" fill-opacity="0" stroke="rgb(34,23,20)" stroke-opacity="1" stroke-width="2" d=" M68.01300048828125,125.80699920654297 C64.66799926757812,125.5459976196289 60.35100173950195,123.25599670410156 58.51100158691406,122.00199890136719 C56.67100143432617,120.74800109863281 53.32600021362305,118.31199645996094 53.32600021362305,118.31199645996094 C50.37799835205078,116.38800048828125 47.04399871826172,115.07099914550781 44.064998626708984,117.05699920654297 C40.1349983215332,119.6709976196289 41.14799880981445,124.45800018310547 43.029998779296875,127.09300231933594 C43.029998779296875,127.09300231933594 51.862998962402344,138.51800537109375 65.3479995727539,138.43499755859375"></path></g></g><g transform="matrix(1,0,0,1,100000,100000)" opacity="1" style="display: block;"></g></g></g><g mask="url(#__lottie_element_268)" style="display: block;"><g clip-path="url(#__lottie_element_279)" transform="matrix(1,0,0,1,-100000,-100000)" opacity="1"><g transform="matrix(1,0,0,1,100000,100000)" opacity="1" style="display: block;"><g opacity="1" transform="matrix(1,0,0,1,0,0)"><path fill="rgb(157,199,19)" fill-opacity="1" d=" M65.16999816894531,126.52999877929688 C65.16999816894531,126.52999877929688 65.12799835205078,138.86500549316406 65.12799835205078,138.86500549316406 C65.12799835205078,138.86500549316406 97.11599731445312,130.69000244140625 97.11599731445312,130.69000244140625 C97.11599731445312,130.69000244140625 94.16799926757812,122.16000366210938 94.16799926757812,122.16000366210938 C94.16799926757812,122.16000366210938 65.16999816894531,126.52999877929688 65.16999816894531,126.52999877929688z"></path></g><g opacity="1" transform="matrix(1,0,0,1,0,0)"><path fill="rgb(157,199,19)" fill-opacity="1" d=" M68.01300048828125,125.80699920654297 C64.66799926757812,125.5459976196289 60.35100173950195,123.25599670410156 58.51100158691406,122.00199890136719 C56.67100143432617,120.74800109863281 53.32600021362305,118.31199645996094 53.32600021362305,118.31199645996094 C50.37799835205078,116.38800048828125 47.04399871826172,115.07099914550781 44.064998626708984,117.05699920654297 C40.1349983215332,119.6709976196289 41.14799880981445,124.45800018310547 43.029998779296875,127.09300231933594 C43.029998779296875,127.09300231933594 51.862998962402344,138.51800537109375 65.3479995727539,138.43499755859375"></path></g><g opacity="1" transform="matrix(1,0,0,1,0,0)"><path fill="rgb(157,199,19)" fill-opacity="1" d=" M74.62999725341797,75.62100219726562 C80.19200134277344,42.49399948120117 78.54000091552734,45.75600051879883 81.9800033569336,35.62699890136719 C83.92400360107422,29.929000854492188 87.76000213623047,27.28499984741211 92.25499725341797,27.649999618530273 C99.89600372314453,28.267000198364258 106.28299713134766,44.75199890136719 107.61100006103516,79.15499877929688 C107.6449966430664,79.9000015258789 108.04900360107422,80.5780029296875 108.68800354003906,80.96299743652344 C118.10600280761719,86.68099975585938 117.15499877929688,101.71299743652344 106.62799835205078,105.95700073242188 C106.02200317382812,106.197998046875 105.60399627685547,106.74099731445312 105.47799682617188,107.4000015258789 C101.86199951171875,125.44200134277344 86.97599792480469,131.4429931640625 72.55000305175781,129.56100463867188 C47.159000396728516,126.25800323486328 47.46200180053711,102.39199829101562 47.00199890136719,88.3219985961914 C46.58399963378906,75.74700164794922 48.25600051879883,46.40399932861328 55.512001037597656,40.27799987792969 C58.742000579833984,37.54999923706055 62.28499984741211,37.832000732421875 65.36900329589844,41.55400085449219 C67.89900207519531,44.60599899291992 75.38300323486328,68.14700317382812 75.38300323486328,68.14700317382812"></path></g><g opacity="1" transform="matrix(1,0,0,1,0,0)"><path fill="rgb(171,205,3)" fill-opacity="1" d=" M74.62999725341797,75.62000274658203 C80.19200134277344,42.49300003051758 78.54000091552734,45.75400161743164 81.9800033569336,35.625 C81.9800033569336,35.625 74.62999725341797,75.62000274658203 74.62999725341797,75.62000274658203z"></path></g></g><g transform="matrix(1,0,0,1,100000,100000)" opacity="1" style="display: block;"></g></g></g><g mask="url(#__lottie_element_248)" style="display: block;"><g clip-path="url(#__lottie_element_259)" transform="matrix(1,0,0,1,-100000,-100000)" opacity="1"><g transform="matrix(1,0,0,1,100000,100000)" opacity="1" style="display: block;"><g opacity="1" transform="matrix(1,0,0,1,0,0)"><path stroke-linecap="round" stroke-linejoin="round" fill-opacity="0" stroke="rgb(34,23,20)" stroke-opacity="1" stroke-width="2" d=" M60.393001556396484,44.03099822998047 C60.393001556396484,44.03099822998047 61.75199890136719,58.47800064086914 67.3550033569336,67.63500213623047"></path></g></g><g transform="matrix(1,0,0,1,100000,100000)" opacity="1" style="display: block;"></g></g></g><g mask="url(#__lottie_element_228)" style="display: block;"><g clip-path="url(#__lottie_element_239)" transform="matrix(1,0,0,1,-100000,-100000)" opacity="1"><g transform="matrix(1,0,0,1,100000,100000)" opacity="1" style="display: block;"><g opacity="1" transform="matrix(1,0,0,1,0,0)"><path fill="rgb(252,208,0)" fill-opacity="1" d=" M109.86900329589844,94.13400268554688 C109.14700317382812,96.51699829101562 106.61799621582031,97.79299926757812 104.23400115966797,96.97699737548828 C101.8499984741211,96.16100311279297 100.50299835205078,93.56900024414062 101.2239990234375,91.1760025024414 C101.94499969482422,88.79199981689453 104.4749984741211,87.51599884033203 106.85800170898438,88.33200073242188 C109.24099731445312,89.14800262451172 110.58999633789062,91.73999786376953 109.86900329589844,94.13400268554688 C109.86900329589844,94.13400268554688 109.86900329589844,94.13400268554688 109.86900329589844,94.13400268554688z"></path><path stroke-linecap="round" stroke-linejoin="miter" fill-opacity="0" stroke-miterlimit="10" stroke="rgb(34,23,20)" stroke-opacity="1" stroke-width="2" d=" M109.86900329589844,94.13400268554688 C109.14700317382812,96.51699829101562 106.61799621582031,97.79299926757812 104.23400115966797,96.97699737548828 C101.8499984741211,96.16100311279297 100.50299835205078,93.56900024414062 101.2239990234375,91.1760025024414 C101.94499969482422,88.79199981689453 104.4749984741211,87.51599884033203 106.85800170898438,88.33200073242188 C109.24099731445312,89.14800262451172 110.58999633789062,91.73999786376953 109.86900329589844,94.13400268554688 C109.86900329589844,94.13400268554688 109.86900329589844,94.13400268554688 109.86900329589844,94.13400268554688z"></path></g></g><g transform="matrix(1,0,0,1,100000,100000)" opacity="1" style="display: block;"></g></g></g><g mask="url(#__lottie_element_208)" style="display: block;"><g clip-path="url(#__lottie_element_219)" transform="matrix(1,0,0,1,-100000,-100000)" opacity="1"><g transform="matrix(1,0,0,1,100000,100000)" opacity="1" style="display: block;"><g opacity="1" transform="matrix(1,0,0,1,0,0)"><path stroke-linecap="round" stroke-linejoin="round" fill-opacity="0" stroke="rgb(34,23,20)" stroke-opacity="1" stroke-width="2" d=" M74.62999725341797,75.62000274658203 C80.19200134277344,42.49300003051758 78.54000091552734,45.75400161743164 81.9800033569336,35.625"></path></g></g><g transform="matrix(1,0,0,1,100000,100000)" opacity="1" style="display: block;"></g></g></g><g mask="url(#__lottie_element_188)" style="display: block;"><g clip-path="url(#__lottie_element_199)" transform="matrix(1,0,0,1,-100000,-100000)" opacity="1"><g transform="matrix(1,0,0,1,100000,100000)" opacity="1" style="display: block;"><g opacity="1" transform="matrix(1,0,0,1,0,0)"><path fill="rgb(255,255,255)" fill-opacity="1" d=" M77.91300201416016,85.51200103759766 C90.27899932861328,86.76599884033203 99.15399932861328,94.81600189208984 97.86799621582031,108.96900177001953 C96.70800018310547,121.8479995727539 84.68699645996094,127.46099853515625 74.9540023803711,126.64600372314453 C63.44499969482422,125.68399810791016 53.67100143432617,118.26200103759766 54.41400146484375,104.97599792480469 C55.124000549316406,92.21299743652344 65.62999725341797,84.27799987792969 77.91300201416016,85.52200317382812 C77.91300201416016,85.52200317382812 77.91300201416016,85.51200103759766 77.91300201416016,85.51200103759766z"></path><path stroke-linecap="round" stroke-linejoin="miter" fill-opacity="0" stroke-miterlimit="10" stroke="rgb(34,23,20)" stroke-opacity="1" stroke-width="2" d=" M77.91300201416016,85.51200103759766 C90.27899932861328,86.76599884033203 99.15399932861328,94.81600189208984 97.86799621582031,108.96900177001953 C96.70800018310547,121.8479995727539 84.68699645996094,127.46099853515625 74.9540023803711,126.64600372314453 C63.44499969482422,125.68399810791016 53.67100143432617,118.26200103759766 54.41400146484375,104.97599792480469 C55.124000549316406,92.21299743652344 65.62999725341797,84.27799987792969 77.91300201416016,85.52200317382812 C77.91300201416016,85.52200317382812 77.91300201416016,85.51200103759766 77.91300201416016,85.51200103759766z"></path></g></g><g transform="matrix(1,0,0,1,100000,100000)" opacity="1" style="display: block;"></g></g></g><g mask="url(#__lottie_element_168)" style="display: block;"><g clip-path="url(#__lottie_element_179)" transform="matrix(1,0,0,1,-100000,-100000)" opacity="1"><g transform="matrix(1,0,0,1,100000,100000)" opacity="1" style="display: block;"><g opacity="1" transform="matrix(1,0,0,1,0,0)"><path stroke-linecap="round" stroke-linejoin="round" fill-opacity="0" stroke="rgb(34,23,20)" stroke-opacity="1" stroke-width="2" d=" M74.62999725341797,75.62100219726562 C80.19200134277344,42.49399948120117 78.54000091552734,45.75600051879883 81.9800033569336,35.62699890136719 C83.92400360107422,29.929000854492188 87.76000213623047,27.28499984741211 92.25499725341797,27.649999618530273 C99.89600372314453,28.267000198364258 106.28299713134766,44.75199890136719 107.61100006103516,79.15499877929688 C107.6449966430664,79.9000015258789 108.04900360107422,80.5780029296875 108.68800354003906,80.96299743652344 C118.10600280761719,86.68099975585938 117.15499877929688,101.71299743652344 106.62799835205078,105.95700073242188 C106.02200317382812,106.197998046875 105.60399627685547,106.74099731445312 105.47799682617188,107.4000015258789 C101.86199951171875,125.44200134277344 86.97599792480469,131.4429931640625 72.55000305175781,129.56100463867188 C47.159000396728516,126.25800323486328 47.46200180053711,102.39199829101562 47.00199890136719,88.3219985961914 C46.58399963378906,75.74700164794922 48.25600051879883,46.40399932861328 55.512001037597656,40.27799987792969 C58.742000579833984,37.54999923706055 62.28499984741211,37.832000732421875 65.36900329589844,41.55400085449219 C67.89900207519531,44.60599899291992 75.38300323486328,68.14700317382812 75.38300323486328,68.14700317382812"></path></g></g><g transform="matrix(1,0,0,1,100000,100000)" opacity="1" style="display: block;"></g></g></g><g transform="matrix(1,0,0,1,0,0)" opacity="1" style="display: block;"><path fill="rgb(157,199,19)" fill-opacity="1" d=" M91.83699798583984,128.58999633789062 C91.36699676513672,127.19999694824219 89.69400024414062,125.06800079345703 89.69400024414062,125.06800079345703 C87.4990005493164,122.86199951171875 84.86399841308594,121.10600280761719 81.91600036621094,122.2760009765625 C78.03800201416016,123.81300354003906 78.02799987792969,128.14100646972656 79.16699981689453,130.76499938964844 C79.16699981689453,130.76499938964844 84.54000091552734,141.9810028076172 92.63099670410156,137.30799865722656 C92.63099670410156,137.30799865722656 98.6729965209961,133.28399658203125 95.78800201416016,128.35000610351562"></path></g><g transform="matrix(1,0,0,1,77.03500366210938,74.82599639892578)" opacity="1" style="display: block;"></g><g transform="matrix(1,0,0,1,77.03500366210938,74.82599639892578)" opacity="1" style="display: block;"><g opacity="1" transform="matrix(1,0,0,1,-77.03500366210938,-74.82599639892578)"><path fill="rgb(34,23,20)" fill-opacity="1" d=" M67.02999877929688,108.80999755859375 C69.16699981689453,108.66400146484375 70.76899719238281,106.65399932861328 70.60900115966797,104.32099914550781 C70.4489974975586,101.98799896240234 68.58599853515625,100.21600341796875 66.4489974975586,100.36299896240234 C64.31199645996094,100.51000213623047 62.709999084472656,102.5199966430664 62.87099838256836,104.85299682617188 C63.03099822998047,107.18499755859375 64.89299774169922,108.95700073242188 67.02999877929688,108.80999755859375"></path></g><g opacity="1" transform="matrix(1,0,0,1,-93.16500091552734,-100.23100280761719)"><path fill="rgb(255,255,255)" fill-opacity="1" d=" M82.81099700927734,132.78799438476562 C83.00900268554688,132.2550048828125 82.62699890136719,131.6230010986328 81.96199798583984,131.375 C81.29499816894531,131.12600708007812 80.59500122070312,131.3560028076172 80.39800262451172,131.88900756835938 C80.1989974975586,132.4199981689453 80.5790023803711,133.05299377441406 81.24600219726562,133.302001953125 C81.91100311279297,133.5500030517578 82.61299896240234,133.31900024414062 82.81099700927734,132.78799438476562 M84.98100280761719,129.93800354003906 C85.88500213623047,128.906005859375 85.33399963378906,127.28199768066406 83.98899841308594,127.01499938964844 C83.36499786376953,126.89099884033203 82.72200012207031,127.11000061035156 82.302001953125,127.58899688720703 C81.39800262451172,128.62100219726562 81.94999694824219,130.24400329589844 83.29499816894531,130.51100158691406 C83.91899871826172,130.63499450683594 84.56099700927734,130.41700744628906 84.98100280761719,129.93800354003906"></path></g><g opacity="1" transform="matrix(1,0,0,1,-77.03500366210938,-74.82599639892578)"><path fill="rgb(34,23,20)" fill-opacity="1" d=" M81.48799896240234,109.31400299072266 C83.625,109.16799926757812 85.22799682617188,107.15799713134766 85.06700134277344,104.82499694824219 C84.90699768066406,102.49199676513672 83.04499816894531,100.72000122070312 80.90699768066406,100.86699676513672 C78.77100372314453,101.01399993896484 77.16799926757812,103.02400207519531 77.3290023803711,105.35600280761719 C77.48899841308594,107.68900299072266 79.35099792480469,109.46099853515625 81.48799896240234,109.31400299072266"></path></g><g opacity="1" transform="matrix(1,0,0,1,-101.6500015258789,-106.7959976196289)"><path fill="rgb(255,255,255)" fill-opacity="1" d=" M105.93099975585938,140.21099853515625 C106.13899993896484,139.6510009765625 105.73799896240234,138.98699951171875 105.03900146484375,138.7270050048828 C104.33799743652344,138.4669952392578 103.60199737548828,138.70899963378906 103.3949966430664,139.26699829101562 C103.18599700927734,139.82699584960938 103.58499908447266,140.49099731445312 104.28600311279297,140.75100708007812 C104.98500061035156,141.01100158691406 105.7229995727539,140.7689971923828 105.93099975585938,140.21099853515625 M108.2040023803711,137.2030029296875 C109.15399932861328,136.11900329589844 108.5739974975586,134.41299438476562 107.16100311279297,134.1320037841797 C106.50499725341797,134.0019989013672 105.8290023803711,134.2310028076172 105.38800048828125,134.73399353027344 C104.43800354003906,135.8179931640625 105.01799774169922,137.5240020751953 106.43099975585938,137.80499267578125 C107.08699798583984,137.93499755859375 107.76300048828125,137.70599365234375 108.2040023803711,137.2030029296875"></path></g><g opacity="1" transform="matrix(1,0,0,1,-77.03500366210938,-74.82599639892578)"><path fill="rgb(234,96,130)" fill-opacity="1" d=" M60.56999969482422,111.01599884033203 C62.965999603271484,111.01599884033203 64.90899658203125,109.93900299072266 64.90899658203125,108.61100006103516 C64.90899658203125,107.28299713134766 62.965999603271484,106.20700073242188 60.56999969482422,106.20700073242188 C58.17499923706055,106.20700073242188 56.231998443603516,107.28299713134766 56.231998443603516,108.61100006103516 C56.231998443603516,109.93900299072266 58.17499923706055,111.01599884033203 60.57099914550781,111.01599884033203 M87.26899719238281,112.16799926757812 C89.66400146484375,112.16799926757812 91.60700225830078,111.09200286865234 91.60700225830078,109.76399993896484 C91.60700225830078,108.43599700927734 89.66400146484375,107.35900115966797 87.26899719238281,107.35900115966797 C84.8740005493164,107.35900115966797 82.93000030517578,108.43599700927734 82.93000030517578,109.76399993896484 C82.93000030517578,111.09200286865234 84.87300109863281,112.16799926757812 87.26799774169922,112.16799926757812"></path></g></g><g mask="url(#__lottie_element_139)" style="display: block;"><g clip-path="url(#__lottie_element_150)" transform="matrix(1,0,0,1,-99922.96875,-99925.171875)" opacity="1"><g transform="matrix(1,0,0,1,99922.96875,99925.171875)" opacity="1" style="display: block;"><g opacity="1" transform="matrix(1,0,0,1,0,0)"><path fill="rgb(252,208,0)" fill-opacity="1" d=" M72.9469985961914,118.84600067138672 C79.73200225830078,119.13800048828125 83.12899780273438,116.26399993896484 82.28199768066406,113.30500030517578 C81.90599822998047,111.97799682617188 80.91200256347656,111.43399810791016 79.99299621582031,111.2249984741211 C77.96499633789062,110.76499938964844 77.25399780273438,112.23899841308594 73.2509994506836,112.0719985961914 C69.24700164794922,111.89399719238281 68.66100311279297,110.35800170898438 66.60199737548828,110.6500015258789 C65.66200256347656,110.7760009765625 64.6259994506836,111.24600219726562 64.13500213623047,112.53199768066406 C63.0369987487793,115.40699768066406 66.16300201416016,118.56300354003906 72.9469985961914,118.86699676513672 C72.9469985961914,118.86699676513672 72.9469985961914,118.84600067138672 72.9469985961914,118.84600067138672z"></path><path stroke-linecap="round" stroke-linejoin="miter" fill-opacity="0" stroke-miterlimit="10" stroke="rgb(34,23,20)" stroke-opacity="1" stroke-width="1.65" d=" M72.9469985961914,118.84600067138672 C79.73200225830078,119.13800048828125 83.12899780273438,116.26399993896484 82.28199768066406,113.30500030517578 C81.90599822998047,111.97799682617188 80.91200256347656,111.43399810791016 79.99299621582031,111.2249984741211 C77.96499633789062,110.76499938964844 77.25399780273438,112.23899841308594 73.2509994506836,112.0719985961914 C69.24700164794922,111.89399719238281 68.66100311279297,110.35800170898438 66.60199737548828,110.6500015258789 C65.66200256347656,110.7760009765625 64.6259994506836,111.24600219726562 64.13500213623047,112.53199768066406 C63.0369987487793,115.40699768066406 66.16300201416016,118.56300354003906 72.9469985961914,118.86699676513672 C72.9469985961914,118.86699676513672 72.9469985961914,118.84600067138672 72.9469985961914,118.84600067138672z"></path></g></g><g transform="matrix(1,0,0,1,100000,100000)" opacity="1" style="display: block;"></g></g></g><g transform="matrix(1,0,0,1,77.03500366210938,74.82599639892578)" opacity="1" style="display: block;"></g><g mask="url(#__lottie_element_116)" style="display: block;"><g clip-path="url(#__lottie_element_127)" transform="matrix(1,0,0,1,-99922.96875,-99925.171875)" opacity="1"><g transform="matrix(1,0,0,1,99922.96875,99925.171875)" opacity="1" style="display: block;"><g opacity="1" transform="matrix(1,0,0,1,0,0)"><path stroke-linecap="round" stroke-linejoin="miter" fill-opacity="0" stroke-miterlimit="10" stroke="rgb(34,23,20)" stroke-opacity="1" stroke-width="1.65" d=" M77.89199829101562,114.59300231933594 C77.89199829101562,114.59300231933594 75.9469985961914,115.49199676513672 72.8949966430664,115.35600280761719 C69.84300231933594,115.22000122070312 67.98200225830078,114.16400146484375 67.98200225830078,114.16400146484375"></path></g></g><g transform="matrix(1,0,0,1,100000,100000)" opacity="1" style="display: block;"></g></g></g><g transform="matrix(1,0,0,1,77.03500366210938,74.82599639892578)" opacity="1" style="display: block;"></g><g transform="matrix(1,0,0,1,77.03500366210938,74.82599639892578)" opacity="1" style="display: block;"><g opacity="1" transform="matrix(1,0,0,1,0,0)"></g></g><g mask="url(#__lottie_element_90)" style="display: block;"><g clip-path="url(#__lottie_element_101)" transform="matrix(1,0,0,1,-100000,-100000)" opacity="1"><g transform="matrix(1,0,0,1,100000,100000)" opacity="1" style="display: block;"><g opacity="1" transform="matrix(1,0,0,1,0,0)"><path stroke-linecap="round" stroke-linejoin="round" fill-opacity="0" stroke="rgb(34,23,20)" stroke-opacity="1" stroke-width="2" d=" M91.83699798583984,128.58999633789062 C91.36699676513672,127.19999694824219 89.69400024414062,125.06800079345703 89.69400024414062,125.06800079345703 C87.4990005493164,122.86199951171875 84.86399841308594,121.10600280761719 81.91600036621094,122.2760009765625 C78.03800201416016,123.81300354003906 78.02799987792969,128.14100646972656 79.16699981689453,130.76499938964844 C79.16699981689453,130.76499938964844 84.54000091552734,141.9810028076172 92.63099670410156,137.30799865722656 C92.63099670410156,137.30799865722656 100.93099975585938,132.625 94.2509994506836,125.51699829101562"></path></g></g><g transform="matrix(1,0,0,1,100000,100000)" opacity="1" style="display: block;"></g></g></g><g mask="url(#__lottie_element_70)" style="display: block;"><g clip-path="url(#__lottie_element_81)" transform="matrix(1,0,0,1,-100000,-100000)" opacity="1"><g transform="matrix(1,0,0,1,100000,100000)" opacity="1" style="display: block;"><g opacity="1" transform="matrix(1,0,0,1,0,0)"><path fill="rgb(255,255,255)" fill-opacity="1" d=" M79.89900207519531,42.18000030517578 C79.89900207519531,42.18000030517578 72.27899932861328,43.42399978637695 72.27899932861328,43.42399978637695 C70.13500213623047,43.77899932861328 69.46600341796875,46.518001556396484 71.2020034790039,47.845001220703125 C71.2020034790039,47.845001220703125 77.7979965209961,52.915000915527344 77.7979965209961,52.915000915527344"></path></g><g opacity="1" transform="matrix(1,0,0,1,0,0)"><path stroke-linecap="round" stroke-linejoin="round" fill-opacity="0" stroke="rgb(34,23,20)" stroke-opacity="1" stroke-width="2" d=" M79.89900207519531,42.18000030517578 C79.89900207519531,42.18000030517578 72.27899932861328,43.42399978637695 72.27899932861328,43.42399978637695 C70.13500213623047,43.77899932861328 69.46600341796875,46.518001556396484 71.2020034790039,47.845001220703125 C71.2020034790039,47.845001220703125 77.7979965209961,52.915000915527344 77.7979965209961,52.915000915527344"></path></g></g><g transform="matrix(1,0,0,1,100000,100000)" opacity="1" style="display: block;"></g></g></g><g mask="url(#__lottie_element_50)" style="display: block;"><g clip-path="url(#__lottie_element_61)" transform="matrix(1,0,0,1,-100000,-100000)" opacity="1"><g transform="matrix(1,0,0,1,100000,100000)" opacity="1" style="display: block;"><g opacity="1" transform="matrix(1,0,0,1,0,0)"><path fill="rgb(255,255,255)" fill-opacity="1" d=" M77.81900024414062,52.91400146484375 C77.81900024414062,52.91400146484375 69.56999969482422,54.439998626708984 69.56999969482422,54.439998626708984 C67.43800354003906,54.8380012512207 66.83100128173828,57.58700180053711 68.58699798583984,58.882999420166016 C68.58699798583984,58.882999420166016 75.85299682617188,64.23500061035156 75.85299682617188,64.23500061035156"></path></g><g opacity="1" transform="matrix(1,0,0,1,0,0)"><path stroke-linecap="round" stroke-linejoin="round" fill-opacity="0" stroke="rgb(34,23,20)" stroke-opacity="1" stroke-width="2" d=" M77.81900024414062,52.91400146484375 C77.81900024414062,52.91400146484375 69.56999969482422,54.439998626708984 69.56999969482422,54.439998626708984 C67.43800354003906,54.8380012512207 66.83100128173828,57.58700180053711 68.58699798583984,58.882999420166016 C68.58699798583984,58.882999420166016 75.85299682617188,64.23500061035156 75.85299682617188,64.23500061035156"></path></g></g><g transform="matrix(1,0,0,1,100000,100000)" opacity="1" style="display: block;"></g></g></g><g mask="url(#__lottie_element_30)" style="display: block;"><g clip-path="url(#__lottie_element_41)" transform="matrix(1,0,0,1,-100000,-100000)" opacity="1"><g transform="matrix(1,0,0,1,100000,100000)" opacity="1" style="display: block;"><g opacity="1" transform="matrix(1,0,0,1,0,0)"><path fill="rgb(255,255,255)" fill-opacity="1" d=" M75.85299682617188,64.23400115966797 C75.85299682617188,64.23400115966797 67.52200317382812,66.01200103759766 67.52200317382812,66.01200103759766 C65.5250015258789,66.44000244140625 65.02400207519531,69.04199981689453 66.70700073242188,70.2239990234375 C66.70700073242188,70.2239990234375 74.2229995727539,75.45099639892578 74.2229995727539,75.45099639892578"></path></g><g opacity="1" transform="matrix(1,0,0,1,0,0)"><path stroke-linecap="round" stroke-linejoin="round" fill-opacity="0" stroke="rgb(34,23,20)" stroke-opacity="1" stroke-width="2" d=" M75.85299682617188,64.23400115966797 C75.85299682617188,64.23400115966797 67.52200317382812,66.01200103759766 67.52200317382812,66.01200103759766 C65.5250015258789,66.44000244140625 65.02400207519531,69.04199981689453 66.70700073242188,70.2239990234375 C66.70700073242188,70.2239990234375 74.2229995727539,75.45099639892578 74.2229995727539,75.45099639892578"></path></g></g><g transform="matrix(1,0,0,1,100000,100000)" opacity="1" style="display: block;"></g></g></g><g transform="matrix(1,0,0,1,0,0)" opacity="1" style="display: block;"><path fill="rgb(243,249,253)" fill-opacity="0.1" d=" M71.11799621582031,135.22500610351562 C53.36800003051758,135.22500610351562 38.922000885009766,120.77899932861328 38.922000885009766,103.02899932861328 C38.922000885009766,103.02899932861328 82.81500244140625,14.425999641418457 82.81500244140625,14.425999641418457 C100.56500244140625,14.425999641418457 115.01200103759766,28.871999740600586 115.01200103759766,46.62200164794922 C115.01200103759766,46.62200164794922 115.01200103759766,103.02899932861328 115.01200103759766,103.02899932861328 C115.01200103759766,120.77899932861328 100.56500244140625,135.22500610351562 82.81500244140625,135.22500610351562 C82.81500244140625,135.22500610351562 71.11799621582031,135.22500610351562 71.11799621582031,135.22500610351562z"></path></g><g transform="matrix(1,0,0,1,-0.7490005493164062,-0.09799957275390625)" opacity="1" style="display: block;"><path fill="rgb(237,248,255)" fill-opacity="1" d=" M146.48699951171875,134.19900512695312 C146.10000610351562,129.50599670410156 139.73399353027344,125.77400207519531 131.9149932861328,125.77400207519531 C131.66400146484375,125.77400207519531 131.4340057373047,125.78399658203125 131.18299865722656,125.79499816894531 C128.8730010986328,120.7770004272461 121.29399871826172,117.0979995727539 112.29399871826172,117.0979995727539 C101.46399688720703,117.0979995727539 92.68399810791016,122.42900085449219 92.68399810791016,129.00399780273438 C92.68399810791016,130.1230010986328 92.94400024414062,131.19900512695312 93.41500091552734,132.2239990234375 C93.05999755859375,132.21299743652344 92.71499633789062,132.2030029296875 92.35900115966797,132.2030029296875 C81.52899932861328,132.2030029296875 72.7490005493164,137.53399658203125 72.7490005493164,144.10899353027344 C72.7490005493164,150.6840057373047 81.52899932861328,156.01600646972656 92.35900115966797,156.01600646972656 C94.74299621582031,156.01600646972656 97.03199768066406,155.75399780273438 99.15399932861328,155.28399658203125 C102.73999786376953,158.13800048828125 108.3949966430664,159.97799682617188 114.76100158691406,159.97799682617188 C124.66000366210938,159.97799682617188 132.8350067138672,155.5240020751953 134.17300415039062,149.74400329589844 C136.58799743652344,150.83099365234375 139.5570068359375,151.47900390625 142.78700256347656,151.47900390625 C150.79400634765625,151.47900390625 157.27499389648438,147.53799438476562 157.27499389648438,142.68800354003906 C157.27499389648438,138.61099243164062 152.69700622558594,135.1820068359375 146.48699951171875,134.18899536132812 C146.48699951171875,134.18899536132812 146.48699951171875,134.19900512695312 146.48699951171875,134.19900512695312z"></path></g><g transform="matrix(1,0,0,1,3,-0.43000030517578125)" opacity="1" style="display: block;"><path fill="rgb(237,248,255)" fill-opacity="1" d=" M8.366000175476074,64.52799987792969 C8.595999717712402,61.757999420166016 12.348999977111816,59.551998138427734 16.9689998626709,59.551998138427734 C17.115999221801758,59.551998138427734 17.250999450683594,59.551998138427734 17.398000717163086,59.5620002746582 C18.756999969482422,56.604000091552734 23.231000900268555,54.43000030517578 28.541000366210938,54.43000030517578 C34.93899917602539,54.43000030517578 40.112998962402344,57.57600021362305 40.112998962402344,61.45399856567383 C40.112998962402344,62.112998962402344 39.95600128173828,62.750999450683594 39.685001373291016,63.356998443603516 C39.89400100708008,63.356998443603516 40.10300064086914,63.34700012207031 40.3120002746582,63.34700012207031 C46.70899963378906,63.34700012207031 51.88399887084961,66.49299621582031 51.88399887084961,70.37100219726562 C51.88399887084961,74.2490005493164 46.69900131225586,77.39600372314453 40.3120002746582,77.39600372314453 C38.9630012512207,77.39600372314453 37.617000579833984,77.25199890136719 36.29800033569336,76.96700286865234 C34.18600082397461,78.6500015258789 30.840999603271484,79.73699951171875 27.08799934387207,79.73699951171875 C21.2450008392334,79.73699951171875 16.415000915527344,77.11399841308594 15.630999565124512,73.69499969482422 C14.210000038146973,74.33300018310547 12.45300006866455,74.72000122070312 10.550999641418457,74.72000122070312 C5.826000213623047,74.72000122070312 2,72.4000015258789 2,69.52400207519531 C2,67.12000274658203 4.706999778747559,65.09200286865234 8.366000175476074,64.50700378417969 C8.366000175476074,64.50700378417969 8.366000175476074,64.52799987792969 8.366000175476074,64.52799987792969z"></path></g><g transform="matrix(1,0,0,1,0.8669967651367188,0.38699913024902344)" opacity="1" style="display: block;"><path fill="rgb(237,248,255)" fill-opacity="1" d=" M131.64300537109375,28.15999984741211 C131.4759979248047,26.09000015258789 128.66400146484375,24.450000762939453 125.21399688720703,24.450000762939453 C125.21399688720703,24.450000762939453 124.88999938964844,24.450000762939453 124.88999938964844,24.450000762939453 C123.8759994506836,22.233999252319336 120.53099822998047,20.613000869750977 116.56900024414062,20.613000869750977 C111.79199981689453,20.613000869750977 107.92500305175781,22.96500015258789 107.92500305175781,25.861000061035156 C107.92500305175781,26.351999282836914 108.03900146484375,26.83300018310547 108.2490005493164,27.283000946044922 C108.2490005493164,27.283000946044922 107.77799987792969,27.283000946044922 107.77799987792969,27.283000946044922 C103.0009994506836,27.283000946044922 99.13300323486328,29.635000228881836 99.13300323486328,32.529998779296875 C99.13300323486328,35.42499923706055 103.0009994506836,37.77799987792969 107.77799987792969,37.77799987792969 C108.78700256347656,37.779998779296875 109.79299926757812,37.67100143432617 110.77799987792969,37.45399856567383 C112.35700225830078,38.70800018310547 114.8550033569336,39.52399826049805 117.65699768066406,39.52399826049805 C122.01599884033203,39.52399826049805 125.62200164794922,37.55799865722656 126.21800231933594,35.007999420166016 C127.28399658203125,35.487998962402344 128.59100341796875,35.770999908447266 130.01300048828125,35.770999908447266 C133.54600524902344,35.770999908447266 136.39999389648438,34.03499984741211 136.39999389648438,31.892000198364258 C136.39999389648438,30.094999313354492 134.3820037841797,28.589000701904297 131.64300537109375,28.149999618530273 C131.64300537109375,28.149999618530273 131.64300537109375,28.15999984741211 131.64300537109375,28.15999984741211z"></path></g></g></svg>