<svg xmlns="http://www.w3.org/2000/svg" viewBox="0 0 160 160" width="160" height="160" preserveAspectRatio="xMidYMid meet" style="width: 100%; height: 100%; transform: translate3d(0px, 0px, 0px); content-visibility: visible;"><defs><clipPath id="__lottie_element_5"><rect width="160" height="160" x="0" y="0"></rect></clipPath><linearGradient id="__lottie_element_12" spreadMethod="pad" gradientUnits="userSpaceOnUse" x1="153.98899841308594" y1="138.75599670410156" x2="80.69812774658203" y2="138.83932495117188"><stop offset="0%" stop-color="rgb(255,255,255)" stop-opacity="0"></stop><stop offset="100%" stop-color="rgb(255,255,255)" stop-opacity="0.800000011920929"></stop></linearGradient><linearGradient id="__lottie_element_13" spreadMethod="pad" gradientUnits="userSpaceOnUse" x1="147.15499877929688" y1="131.08299255371094" x2="105.03033447265625" y2="131.16632080078125"><stop offset="0%" stop-color="rgb(255,255,255)" stop-opacity="0"></stop><stop offset="100%" stop-color="rgb(255,255,255)" stop-opacity="0.800000011920929"></stop></linearGradient></defs><g clip-path="url(#__lottie_element_5)"><g transform="matrix(1,0,0,1,0,0)" opacity="1" style="display: block;"><g opacity="1" transform="matrix(1,0,0,1,0,0)"><path fill="rgb(255,255,255)" fill-opacity="0" d=" M160,0 C160,0 160,160 160,160 C160,160 0,160 0,160 C0,160 0,0 0,0 C0,0 160,0 160,0z"></path></g></g><g transform="matrix(1,0,0,1,91.13300323486328,138.95700073242188)" opacity="1" style="display: block;"><g opacity="1" transform="matrix(1,0,0,1,-91.13300323486328,-138.95700073242188)"><path fill="rgb(193,234,255)" fill-opacity="1" d=" M51.31999969482422,120.86799621582031 C46.44499969482422,121.75299835205078 41.49800109863281,122.91300201416016 37.319000244140625,125.56900024414062 C33.13999938964844,128.23800659179688 29.81800079345703,132.6929931640625 29.715999603271484,137.63999938964844 C29.61400032043457,142.5449981689453 32.689998626708984,147.08599853515625 36.66600036621094,149.94400024414062 C40.641998291015625,152.802001953125 45.444000244140625,154.31199645996094 50.202999114990234,155.45799255371094 C71.4010009765625,160.5070037841797 99.88300323486328,162.16099548339844 127.91500091552734,156.13999938964844 C142.09100341796875,153.09300231933594 146.89300537109375,146.36099243164062 147.61900329589844,142.12399291992188 C148.3730010986328,137.63999938964844 146.3280029296875,133.01199340820312 143.14999389648438,129.7469940185547 C139.9720001220703,126.49700164794922 135.8520050048828,124.21900177001953 131.54299926757812,122.75399780273438 C109.58999633789062,115.26699829101562 66.98999786376953,117.99500274658203 51.305999755859375,120.85299682617188 C51.305999755859375,120.85299682617188 51.31999969482422,120.86799621582031 51.31999969482422,120.86799621582031z"></path></g><g opacity="1" transform="matrix(1,0,0,1,-91.13300323486328,-138.95700073242188)"><path stroke="url(#__lottie_element_12)" stroke-linecap="round" stroke-linejoin="miter" fill-opacity="0" stroke-miterlimit="10" stroke-opacity="1" stroke-width="1.97" d=" M152.552001953125,141.32400512695312 C138.2310028076172,144.79200744628906 123.85299682617188,146.83700561523438 104.65699768066406,143.86300659179688 C84.93900299072266,140.802001953125 82.03700256347656,132.2270050048828 82.03700256347656,132.2270050048828"></path></g><g opacity="1" transform="matrix(1,0,0,1,-91.13300323486328,-138.95700073242188)"><path stroke="url(#__lottie_element_13)" stroke-linecap="round" stroke-linejoin="miter" fill-opacity="0" stroke-miterlimit="10" stroke-opacity="1" stroke-width="1.97" d=" M106.36900329589844,133.53500366210938 C106.36900329589844,133.53500366210938 128.72799682617188,137.2779998779297 145.71800231933594,127.89099884033203"></path></g></g><g transform="matrix(1,0,0,1,74,73.62000274658203)" opacity="1" style="display: block;"><g opacity="1" transform="matrix(1,0,0,1,-74,-73.62000274658203)"><path fill="rgb(0,155,117)" fill-opacity="1" d=" M120.95999908447266,72.23400115966797 C118.30000305175781,78.66200256347656 111.24400329589844,81.91200256347656 104.75299835205078,79.96800231933594 C103.3499984741211,83.73999786376953 99.96700286865234,86.6709976196289 95.6729965209961,87.2509994506836 C93.66799926757812,87.51799774169922 91.62899780273438,87.23200225830078 89.7750015258789,86.42400360107422 C86.7959976196289,87.65699768066406 83.68800354003906,88.74600219726562 80.3479995727539,89.23899841308594 C74.01499938964844,90.21099853515625 67.53700256347656,89.43800354003906 61.611000061035156,87.00399780273438 C59.63100051879883,88.35399627685547 57.40399932861328,89.44200134277344 54.98899841308594,90.1240005493164 C42.90299987792969,93.5770034790039 30.29599952697754,86.51100158691406 26.868999481201172,74.38200378417969 C23.905000686645508,63.87699890136719 28.749000549316406,52.994998931884766 37.944000244140625,48.03200149536133 C36.527000427246094,32.30500030517578 47.457000732421875,17.94099998474121 63.24399948120117,15.402000427246094 C74.88400268554688,13.487000465393066 86.05899810791016,18.565000534057617 92.56500244140625,27.517000198364258 C101.40499877929688,26.312000274658203 110.02999877929688,30.875999450683594 114.00599670410156,38.862998962402344 C116.6520004272461,44.159000396728516 116.83999633789062,50.06399917602539 115.01799774169922,55.24399948120117 C120.9739990234375,58.49399948120117 123.62000274658203,65.79199981689453 120.9739990234375,72.23400115966797 C120.9739990234375,72.23400115966797 120.95999908447266,72.23400115966797 120.95999908447266,72.23400115966797z"></path><path stroke-linecap="butt" stroke-linejoin="round" fill-opacity="0" stroke="rgb(34,23,20)" stroke-opacity="1" stroke-width="2" d=" M120.95999908447266,72.23400115966797 C118.30000305175781,78.66200256347656 111.24400329589844,81.91200256347656 104.75299835205078,79.96800231933594 C103.3499984741211,83.73999786376953 99.96700286865234,86.6709976196289 95.6729965209961,87.2509994506836 C93.66799926757812,87.51799774169922 91.62899780273438,87.23200225830078 89.7750015258789,86.42400360107422 C86.7959976196289,87.65699768066406 83.68800354003906,88.74600219726562 80.3479995727539,89.23899841308594 C74.01499938964844,90.21099853515625 67.53700256347656,89.43800354003906 61.611000061035156,87.00399780273438 C59.63100051879883,88.35399627685547 57.40399932861328,89.44200134277344 54.98899841308594,90.1240005493164 C42.90299987792969,93.5770034790039 30.29599952697754,86.51100158691406 26.868999481201172,74.38200378417969 C23.905000686645508,63.87699890136719 28.749000549316406,52.994998931884766 37.944000244140625,48.03200149536133 C36.527000427246094,32.30500030517578 47.457000732421875,17.94099998474121 63.24399948120117,15.402000427246094 C74.88400268554688,13.487000465393066 86.05899810791016,18.565000534057617 92.56500244140625,27.517000198364258 C101.40499877929688,26.312000274658203 110.02999877929688,30.875999450683594 114.00599670410156,38.862998962402344 C116.6520004272461,44.159000396728516 116.83999633789062,50.06399917602539 115.01799774169922,55.24399948120117 C120.9739990234375,58.49399948120117 123.62000274658203,65.79199981689453 120.9739990234375,72.23400115966797 C120.9739990234375,72.23400115966797 120.95999908447266,72.23400115966797 120.95999908447266,72.23400115966797z"></path></g><g opacity="1" transform="matrix(1,0,0,1,-74,-73.62000274658203)"><path fill="rgb(34,23,20)" fill-opacity="1" d=" M83.48799896240234,126.9020004272461 C83.48799896240234,126.9020004272461 84.16999816894531,131.76300048828125 82.03700256347656,132.21299743652344 C79.91799926757812,132.66299438476562 79.81700134277344,127.36699676513672 79.81700134277344,127.36699676513672 C79.81700134277344,127.36699676513672 83.4729995727539,126.9020004272461 83.4729995727539,126.9020004272461 C83.4729995727539,126.9020004272461 83.48799896240234,126.9020004272461 83.48799896240234,126.9020004272461z M108.89399719238281,104.86299896240234 C108.89399719238281,104.86299896240234 113.75399780273438,105.53099822998047 113.60900115966797,107.70700073242188 C113.46399688720703,109.88400268554688 108.34200286865234,108.5199966430664 108.34200286865234,108.5199966430664 C108.34200286865234,108.5199966430664 108.89399719238281,104.87799835205078 108.89399719238281,104.87799835205078 C108.89399719238281,104.87799835205078 108.89399719238281,104.86299896240234 108.89399719238281,104.86299896240234z"></path></g><g opacity="1" transform="matrix(1,0,0,1,-74,-73.62000274658203)"><path fill="rgb(194,217,92)" fill-opacity="1" d=" M67.5999984741211,102.1969985961914 C67.5999984741211,102.1969985961914 82.20999908447266,116.09700012207031 82.20999908447266,116.09700012207031 C82.20999908447266,116.09700012207031 87.9280014038086,102.1969985961914 87.9280014038086,102.1969985961914 C87.9280014038086,102.1969985961914 88.47799682617188,71.46600341796875 88.47799682617188,71.46600341796875 C88.47799682617188,71.46600341796875 69.55799865722656,68.43399810791016 69.55799865722656,68.43399810791016 C69.55799865722656,68.43399810791016 59.69200134277344,74.41100311279297 59.69200134277344,74.41100311279297 C59.69200134277344,74.41100311279297 67.5999984741211,102.1969985961914 67.5999984741211,102.1969985961914z"></path></g><g opacity="1" transform="matrix(1,0,0,1,-74,-73.62000274658203)"><path fill="rgb(194,217,92)" fill-opacity="1" d=" M63.30500030517578,87.89199829101562 C55.02000045776367,87.54399871826172 50.26100158691406,83.48100280761719 48.33100128173828,87.87699890136719 C45.63399887084961,94 59.779998779296875,97.51200103759766 70.06800079345703,96.87300109863281"></path></g><g opacity="1" transform="matrix(1,0,0,1,-74,-73.62000274658203)"><path stroke-linecap="round" stroke-linejoin="miter" fill-opacity="0" stroke-miterlimit="10" stroke="rgb(34,23,20)" stroke-opacity="1" stroke-width="2" d=" M63.30500030517578,87.89199829101562 C55.02000045776367,87.54399871826172 50.26100158691406,83.48100280761719 48.33100128173828,87.87699890136719 C45.63399887084961,94 59.779998779296875,97.51200103759766 70.06800079345703,96.87300109863281"></path></g><g opacity="1" transform="matrix(1,0,0,1,-74,-73.62000274658203)"><path fill="rgb(194,217,92)" fill-opacity="1" d=" M86.40399932861328,110.177001953125 C86.50599670410156,112.26699829101562 86.375,120.05799865722656 86.40399932861328,121.59600067138672 C86.43299865722656,123.13400268554688 86.53399658203125,126.60199737548828 82.48699951171875,127.35600280761719 C78.22100067138672,128.1540069580078 76.625,125.31099700927734 76.23300170898438,123.38099670410156 C75.60900115966797,120.31900024414062 73.86799621582031,114.41400146484375 72.31500244140625,112.23799896240234 C66.0469970703125,103.45999908447266 61.54999923706055,92.62100219726562 59.03900146484375,74.28099822998047"></path></g><g opacity="1" transform="matrix(1,0,0,1,-74,-73.62000274658203)"><path stroke-linecap="round" stroke-linejoin="miter" fill-opacity="0" stroke-miterlimit="10" stroke="rgb(34,23,20)" stroke-opacity="1" stroke-width="2" d=" M86.40399932861328,110.177001953125 C86.50599670410156,112.26699829101562 86.375,120.05799865722656 86.40399932861328,121.59600067138672 C86.43299865722656,123.13400268554688 86.53399658203125,126.60199737548828 82.48699951171875,127.35600280761719 C78.22100067138672,128.1540069580078 76.625,125.31099700927734 76.23300170898438,123.38099670410156 C75.60900115966797,120.31900024414062 73.86799621582031,114.41400146484375 72.31500244140625,112.23799896240234 C66.0469970703125,103.45999908447266 61.54999923706055,92.62100219726562 59.03900146484375,74.28099822998047"></path></g><g opacity="1" transform="matrix(1,0,0,1,-74,-73.62000274658203)"><path fill="rgb(194,217,92)" fill-opacity="1" d=" M87.56500244140625,70.68399810791016 C89.87200164794922,78.99700164794922 92.23699951171875,90.50399780273438 95.06600189208984,96.6259994506836 C96.53199768066406,99.78900146484375 104.01799774169922,100.26799774169922 105.58499908447266,100.97899627685547 C107.1520004272461,101.69000244140625 109.44499969482422,103.28600311279297 108.08100128173828,107.50800323486328 C107.25399780273438,110.06199645996094 104.00399780273438,110.5260009765625 102.29199981689453,110.56999969482422 C100.26000213623047,110.62799835205078 88.7249984741211,109.36499786376953 83.8219985961914,110.56999969482422"></path></g><g opacity="1" transform="matrix(1,0,0,1,-74,-73.62000274658203)"><path stroke-linecap="round" stroke-linejoin="miter" fill-opacity="0" stroke-miterlimit="10" stroke="rgb(34,23,20)" stroke-opacity="1" stroke-width="2" d=" M87.56500244140625,70.68399810791016 C89.87200164794922,78.99700164794922 92.23699951171875,90.50399780273438 95.06600189208984,96.6259994506836 C96.53199768066406,99.78900146484375 104.01799774169922,100.26799774169922 105.58499908447266,100.97899627685547 C107.1520004272461,101.69000244140625 109.44499969482422,103.28600311279297 108.08100128173828,107.50800323486328 C107.25399780273438,110.06199645996094 104.00399780273438,110.5260009765625 102.29199981689453,110.56999969482422 C100.26000213623047,110.62799835205078 88.7249984741211,109.36499786376953 83.8219985961914,110.56999969482422"></path></g><g opacity="1" transform="matrix(1,0,0,1,-74,-73.62000274658203)"><path fill="rgb(194,217,92)" fill-opacity="1" d=" M87.6520004272461,81.46299743652344 C93.45600128173828,75.54299926757812 94.41300201416016,69.08699798583984 98.8239974975586,70.95800018310547 C104.43900299072266,73.35199737548828 98.6500015258789,83.26200103759766 91.41000366210938,89.90799713134766"></path></g><g opacity="1" transform="matrix(1,0,0,1,-74,-73.62000274658203)"><path stroke-linecap="round" stroke-linejoin="miter" fill-opacity="0" stroke-miterlimit="10" stroke="rgb(34,23,20)" stroke-opacity="1" stroke-width="2" d=" M87.6520004272461,81.46299743652344 C93.45600128173828,75.54299926757812 94.41300201416016,69.08699798583984 98.8239974975586,70.95800018310547 C104.43900299072266,73.35199737548828 98.6500015258789,83.26200103759766 91.41000366210938,89.90799713134766"></path></g><g opacity="1" transform="matrix(1,0,0,1,-74,-73.62000274658203)"><path fill="rgb(34,23,20)" fill-opacity="1" d=" M73.69400024414062,79.89700317382812 C73.85399627685547,81.15899658203125 74.95600128173828,82.05899810791016 76.16000366210938,81.91400146484375 C77.3499984741211,81.76899719238281 78.19200134277344,80.62300109863281 78.03199768066406,79.36000061035156 C77.87200164794922,78.09700012207031 76.7699966430664,77.197998046875 75.56600189208984,77.34400177001953 C74.3759994506836,77.48899841308594 73.53399658203125,78.63400268554688 73.69400024414062,79.89700317382812 M65.5979995727539,81.74099731445312 C65.77200317382812,83.00399780273438 66.77300262451172,83.91799926757812 67.84700012207031,83.78700256347656 C68.91999816894531,83.65699768066406 69.64600372314453,82.53900146484375 69.47200012207031,81.2770004272461 C69.2979965209961,80.01499938964844 68.2959976196289,79.10099792480469 67.22200012207031,79.23100280761719 C66.14900207519531,79.36100006103516 65.42400360107422,80.47899627685547 65.5979995727539,81.74099731445312"></path></g><g opacity="1" transform="matrix(1,0,0,1,-74,-73.62000274658203)"><path stroke-linecap="round" stroke-linejoin="round" fill-opacity="0" stroke="rgb(34,23,20)" stroke-opacity="1" stroke-width="2" d=" M74.6520004272461,85.0199966430664 C74.6520004272461,85.0199966430664 72.48999786376953,86.6449966430664 70.06700134277344,85.77400207519531"></path></g><g opacity="1" transform="matrix(1,0,0,1,-74,-73.62000274658203)"><path fill="rgb(0,155,117)" fill-opacity="1" d=" M102.68399810791016,100.26799774169922 C103.98899841308594,100.54399871826172 105.09200286865234,100.74700164794922 105.58499908447266,100.96499633789062 C107.19599914550781,101.69000244140625 109.44499969482422,103.27200317382812 108.08100128173828,107.49400329589844 C107.25399780273438,110.0479965209961 104.00399780273438,110.51200103759766 102.29199981689453,110.55599975585938 C102.29199981689453,110.55599975585938 101.01499938964844,110.55599975585938 101.01499938964844,110.55599975585938 C101.84200286865234,108.52400207519531 102.71299743652344,105.18699645996094 102.66899871826172,100.25399780273438 C102.66899871826172,100.25399780273438 102.68399810791016,100.26799774169922 102.68399810791016,100.26799774169922z M86.40399932861328,120.12899780273438 C86.40399932861328,120.12899780273438 86.40399932861328,121.59400177001953 86.40399932861328,121.59400177001953 C86.41799926757812,123.20500183105469 86.53399658203125,126.5999984741211 82.48699951171875,127.3550033569336 C78.22100067138672,128.1529998779297 76.625,125.30899810791016 76.23300170898438,123.37899780273438 C76.052001953125,122.50700378417969 75.84400177001953,121.64099884033203 75.60900115966797,120.78199768066406 C80.97799682617188,122.23300170898438 84.66300201416016,120.9990005493164 86.40399932861328,120.12899780273438 C86.40399932861328,120.12899780273438 86.40399932861328,120.12899780273438 86.40399932861328,120.12899780273438z"></path><path stroke-linecap="butt" stroke-linejoin="round" fill-opacity="0" stroke="rgb(34,23,20)" stroke-opacity="1" stroke-width="2" d=" M102.68399810791016,100.26799774169922 C103.98899841308594,100.54399871826172 105.09200286865234,100.74700164794922 105.58499908447266,100.96499633789062 C107.19599914550781,101.69000244140625 109.44499969482422,103.27200317382812 108.08100128173828,107.49400329589844 C107.25399780273438,110.0479965209961 104.00399780273438,110.51200103759766 102.29199981689453,110.55599975585938 C102.29199981689453,110.55599975585938 101.01499938964844,110.55599975585938 101.01499938964844,110.55599975585938 C101.84200286865234,108.52400207519531 102.71299743652344,105.18699645996094 102.66899871826172,100.25399780273438 C102.66899871826172,100.25399780273438 102.68399810791016,100.26799774169922 102.68399810791016,100.26799774169922z M86.40399932861328,120.12899780273438 C86.40399932861328,120.12899780273438 86.40399932861328,121.59400177001953 86.40399932861328,121.59400177001953 C86.41799926757812,123.20500183105469 86.53399658203125,126.5999984741211 82.48699951171875,127.3550033569336 C78.22100067138672,128.1529998779297 76.625,125.30899810791016 76.23300170898438,123.37899780273438 C76.052001953125,122.50700378417969 75.84400177001953,121.64099884033203 75.60900115966797,120.78199768066406 C80.97799682617188,122.23300170898438 84.66300201416016,120.9990005493164 86.40399932861328,120.12899780273438 C86.40399932861328,120.12899780273438 86.40399932861328,120.12899780273438 86.40399932861328,120.12899780273438z"></path></g><g opacity="1" transform="matrix(1,0,0,1,-74,-73.62000274658203)"><path stroke-linecap="round" stroke-linejoin="round" fill-opacity="0" stroke="rgb(34,23,20)" stroke-opacity="1" stroke-width="2" d=" M69.64600372314453,67.62100219726562 C68.90599822998047,68.60800170898438 68.03600311279297,69.52100372314453 67.04900360107422,70.33399963378906 C64.37999725341797,72.58300018310547 61.06999969482422,73.93399810791016 57.5890007019043,74.19400024414062 M88.92900085449219,70.14600372314453 C85.30799865722656,71.06700134277344 81.53099822998047,71.19100189208984 77.85800170898438,70.50900268554688 C74.25700378417969,69.86100006103516 70.83799743652344,68.44599914550781 67.83200073242188,66.35900115966797"></path></g></g></g></svg>