<svg xmlns="http://www.w3.org/2000/svg" viewBox="0 0 160 160" width="160" height="160" preserveAspectRatio="xMidYMid meet" style="width: 100%; height: 100%; transform: translate3d(0px, 0px, 0px); content-visibility: visible;"><defs><clipPath id="__lottie_element_323"><rect width="160" height="160" x="0" y="0"></rect></clipPath><clipPath id="__lottie_element_325"><path d="M0,0 L160,0 L160,160 L0,160z"></path></clipPath><mask id="__lottie_element_337" mask-type="alpha"><g clip-path="url(#__lottie_element_338)" transform="matrix(1,0,0,1,-99948.3125,-99913.859375)" opacity="1" style="display: block;"><g transform="matrix(1,0,0,1,99948.3125,99906.5234375)" opacity="1" style="display: block;"><g opacity="1" transform="matrix(1,0,0,1,0,0)"><g opacity="1" transform="matrix(1,0,0,1,0,0)"><path fill="rgb(255,255,255)" fill-opacity="1" d=" M27.6299991607666,68.19100189208984 C21.420000076293945,73.1709976196289 23.059999465942383,83.10099792480469 28.149999618530273,89.46099853515625 C32.970001220703125,95.48100280761719 41.400001525878906,96.76100158691406 46.95000076293945,92.31099700927734 C52.5,87.87100219726562 53.09000015258789,79.36100006103516 48.279998779296875,73.34100341796875 C43.189998626708984,66.99099731445312 33.86000061035156,63.21099853515625 27.639999389648438,68.19100189208984 C27.639999389648438,68.19100189208984 27.6299991607666,68.19100189208984 27.6299991607666,68.19100189208984z"></path></g></g></g><g transform="matrix(1,0,0,1,100000,100000)" opacity="1" style="display: block;"></g></g></mask><clipPath id="__lottie_element_338"><path d="M0,0 L200000,0 L200000,200000 L0,200000z"></path></clipPath><clipPath id="__lottie_element_348"><path d="M0,0 L200000,0 L200000,200000 L0,200000z"></path></clipPath><mask id="__lottie_element_360" mask-type="alpha"><g clip-path="url(#__lottie_element_361)" transform="matrix(1,0,0,1,-99948.3125,-99913.859375)" opacity="1" style="display: block;"><g transform="matrix(1,0,0,1,99948.3125,99906.5234375)" opacity="1" style="display: block;"><g opacity="1" transform="matrix(1,0,0,1,0,0)"><g opacity="1" transform="matrix(1,0,0,1,0,0)"><path fill="rgb(255,255,255)" fill-opacity="1" d=" M27.6299991607666,68.19100189208984 C21.420000076293945,73.1709976196289 23.059999465942383,83.10099792480469 28.149999618530273,89.46099853515625 C32.970001220703125,95.48100280761719 41.400001525878906,96.76100158691406 46.95000076293945,92.31099700927734 C52.5,87.87100219726562 53.09000015258789,79.36100006103516 48.279998779296875,73.34100341796875 C43.189998626708984,66.99099731445312 33.86000061035156,63.21099853515625 27.639999389648438,68.19100189208984 C27.639999389648438,68.19100189208984 27.6299991607666,68.19100189208984 27.6299991607666,68.19100189208984z"></path></g></g></g><g transform="matrix(1,0,0,1,100000,100000)" opacity="1" style="display: block;"></g></g></mask><clipPath id="__lottie_element_361"><path d="M0,0 L200000,0 L200000,200000 L0,200000z"></path></clipPath><clipPath id="__lottie_element_371"><path d="M0,0 L200000,0 L200000,200000 L0,200000z"></path></clipPath></defs><g clip-path="url(#__lottie_element_323)"><g transform="matrix(1,0,0,1,0,0)" opacity="1" style="display: block;"><g opacity="1" transform="matrix(1,0,0,1,0,0)"><path fill="rgb(255,255,255)" fill-opacity="0" d=" M160,0 C160,0 160,160 160,160 C160,160 0,160 0,160 C0,160 0,0 0,0 C0,0 160,0 160,0z"></path></g></g><g clip-path="url(#__lottie_element_325)" transform="matrix(1,0,0,1,0,0)" opacity="1" style="display: block;"><g transform="matrix(1,0,0,1,0,0)" opacity="1" style="display: block;"><g opacity="1" transform="matrix(1,0,0,1,0,0)"><path fill="rgb(34,23,20)" fill-opacity="0.6" d=" M100.01000213623047,157.81100463867188 C104.8479995727539,157.81100463867188 108.7699966430664,157.18899536132812 108.7699966430664,156.42100524902344 C108.7699966430664,155.6529998779297 104.8479995727539,155.031005859375 100.01000213623047,155.031005859375 C95.1719970703125,155.031005859375 91.25,155.6540069580078 91.25,156.42100524902344 C91.25,157.18899536132812 95.1719970703125,157.81100463867188 100.01000213623047,157.81100463867188"></path></g></g><g transform="matrix(1,0,0,1,0,-7.3332672119140625)" opacity="1" style="display: block;"><g opacity="1" transform="matrix(1,0,0,1,0,0)"><path fill="rgb(255,255,255)" fill-opacity="1" d=" M99.18000030517578,132.38900756835938 C99.18000030517578,132.38900756835938 98.08000183105469,136.40899658203125 96.13999938964844,139.40899658203125 C94.93000030517578,141.2790069580078 91.95999908447266,143.7790069580078 88.19000244140625,142.61900329589844 C84.41999816894531,141.45899963378906 83.31999969482422,138.5189971923828 84.1500015258789,134.4290008544922 C84.1500015258789,134.4290008544922 84.75,131.60899353027344 84.75,131.60899353027344 M83.75,94.20999908447266 C83.75,94.20999908447266 74.16999816894531,109.91999816894531 74.16999816894531,109.91999816894531 C74.16999816894531,109.91999816894531 70.76000213623047,111.86000061035156 70.76000213623047,111.86000061035156 C70.76000213623047,111.86000061035156 69.62999725341797,117.4000015258789 69.62999725341797,117.4000015258789 C69.62999725341797,117.4000015258789 91.80999755859375,128.52999877929688 91.80999755859375,128.52999877929688 C91.80999755859375,128.52999877929688 108.54000091552734,126.55000305175781 108.54000091552734,126.55000305175781 C108.54000091552734,126.55000305175781 110.22000122070312,108.11000061035156 110.22000122070312,108.11000061035156 C110.22000122070312,108.11000061035156 114.58000183105469,101.72000122070312 114.58000183105469,101.72000122070312 C114.58000183105469,101.72000122070312 114.66000366210938,91.68000030517578 114.66000366210938,91.68000030517578 C114.66000366210938,91.68000030517578 83.75,94.20999908447266 83.75,94.20999908447266z"></path></g><g opacity="1" transform="matrix(1,0,0,1,0,0)"><path stroke-linecap="round" stroke-linejoin="round" fill-opacity="0" stroke="rgb(34,23,20)" stroke-opacity="1" stroke-width="2.06" d=" M99.18000030517578,132.38900756835938 C99.18000030517578,132.38900756835938 98.08000183105469,136.40899658203125 96.13999938964844,139.40899658203125 C94.93000030517578,141.2790069580078 91.95999908447266,143.7790069580078 88.19000244140625,142.61900329589844 C84.41999816894531,141.45899963378906 83.31999969482422,138.5189971923828 84.1500015258789,134.4290008544922 C84.1500015258789,134.4290008544922 84.75,131.60899353027344 84.75,131.60899353027344"></path></g><g opacity="1" transform="matrix(1,0,0,1,0,0)"><path fill="rgb(255,255,255)" fill-opacity="1" d=" M78.62000274658203,130.00999450683594 C78.62000274658203,132.74000549316406 80.79000091552734,135.10000610351562 83.45999908447266,135.2899932861328 C86.12999725341797,135.47999572753906 88.30000305175781,133.42999267578125 88.30000305175781,130.7100067138672 C88.30000305175781,127.9800033569336 86.12999725341797,125.62000274658203 83.45999908447266,125.43000030517578 C80.77999877929688,125.23999786376953 78.62000274658203,127.29000091552734 78.62000274658203,130.00999450683594 C78.62000274658203,130.00999450683594 78.62000274658203,130.00999450683594 78.62000274658203,130.00999450683594z"></path><path stroke-linecap="round" stroke-linejoin="miter" fill-opacity="0" stroke-miterlimit="10" stroke="rgb(34,23,20)" stroke-opacity="1" stroke-width="2.06" d=" M78.62000274658203,130.00999450683594 C78.62000274658203,132.74000549316406 80.79000091552734,135.10000610351562 83.45999908447266,135.2899932861328 C86.12999725341797,135.47999572753906 88.30000305175781,133.42999267578125 88.30000305175781,130.7100067138672 C88.30000305175781,127.9800033569336 86.12999725341797,125.62000274658203 83.45999908447266,125.43000030517578 C80.77999877929688,125.23999786376953 78.62000274658203,127.29000091552734 78.62000274658203,130.00999450683594 C78.62000274658203,130.00999450683594 78.62000274658203,130.00999450683594 78.62000274658203,130.00999450683594z"></path></g><g opacity="1" transform="matrix(1,0,0,1,0,0)"><path fill="rgb(255,255,255)" fill-opacity="1" d=" M78.62000274658203,120.50800323486328 C79.48999786376953,125.50800323486328 81.52999877929688,128.8280029296875 83.69999694824219,130.78799438476562 C86.7300033569336,133.51800537109375 91.0199966430664,134.1580047607422 97.41000366210938,132.51800537109375 C97.93000030517578,132.38800048828125 98.47000122070312,132.18800354003906 98.8499984741211,132.25799560546875 C99.3499984741211,132.34800720214844 99.61000061035156,132.7779998779297 99.58999633789062,133.22799682617188 C99.43000030517578,135.9080047607422 100.56999969482422,136.697998046875 102.55999755859375,137.72799682617188 C105.2300033569336,139.10800170898438 108.44999694824219,138.5679931640625 110.04000091552734,137.2779998779297 C111.62999725341797,135.98800659179688 112.88999938964844,134.30799865722656 113.5,132.30799865722656 C114.36000061035156,129.51800537109375 114.22000122070312,126.88800048828125 113.25,125.0479965209961 C112.27999877929688,123.20800018310547 111.12999725341797,122.02799987792969 108.41999816894531,121.86799621582031 C106.91999816894531,121.78800201416016 105.0199966430664,122.53800201416016 104.12999725341797,123.90799713134766"></path></g><g opacity="1" transform="matrix(1,0,0,1,0,0)"><path stroke-linecap="round" stroke-linejoin="round" fill-opacity="0" stroke="rgb(34,23,20)" stroke-opacity="1" stroke-width="2.06" d=" M78.62000274658203,120.50800323486328 C79.48999786376953,125.50800323486328 81.52999877929688,128.8280029296875 83.69999694824219,130.78799438476562 C86.7300033569336,133.51800537109375 91.0199966430664,134.1580047607422 97.41000366210938,132.51800537109375 C97.93000030517578,132.38800048828125 98.47000122070312,132.18800354003906 98.8499984741211,132.25799560546875 C99.3499984741211,132.34800720214844 99.61000061035156,132.7779998779297 99.58999633789062,133.22799682617188 C99.43000030517578,135.9080047607422 100.56999969482422,136.697998046875 102.55999755859375,137.72799682617188 C105.2300033569336,139.10800170898438 108.44999694824219,138.5679931640625 110.04000091552734,137.2779998779297 C111.62999725341797,135.98800659179688 112.88999938964844,134.30799865722656 113.5,132.30799865722656 C114.36000061035156,129.51800537109375 114.22000122070312,126.88800048828125 113.25,125.0479965209961 C112.27999877929688,123.20800018310547 111.12999725341797,122.02799987792969 108.41999816894531,121.86799621582031 C106.91999816894531,121.78800201416016 105.0199966430664,122.53800201416016 104.12999725341797,123.90799713134766"></path></g><g opacity="1" transform="matrix(1,0,0,1,0,0)"><path fill="rgb(255,255,255)" fill-opacity="1" d=" M114,94.45999908447266 C116.80000305175781,92.4000015258789 120.29000091552734,88.77999877929688 123.58999633789062,91.19000244140625 C127.33999633789062,93.93000030517578 125.41999816894531,99.87999725341797 120.20999908447266,103.80899810791016 C115.2300033569336,107.56900024414062 110.22000122070312,108.10900115966797 110.22000122070312,108.10900115966797"></path></g><g opacity="1" transform="matrix(1,0,0,1,0,0)"><path stroke-linecap="round" stroke-linejoin="round" fill-opacity="0" stroke="rgb(34,23,20)" stroke-opacity="1" stroke-width="2.06" d=" M77.55999755859375,107.45700073242188 C77.55999755859375,107.45700073242188 75.6500015258789,107.6969985961914 72.9800033569336,110.56700134277344 C71.97000122070312,111.64700317382812 69.8499984741211,113.26699829101562 65.44000244140625,113.177001953125 M114,94.45999908447266 C116.80000305175781,92.4000015258789 120.29000091552734,88.77999877929688 123.58999633789062,91.19000244140625 C127.33999633789062,93.93000030517578 125.41999816894531,99.87999725341797 120.20999908447266,103.80899810791016 C115.2300033569336,107.56900024414062 110.22000122070312,108.10900115966797 110.22000122070312,108.10900115966797"></path></g><g opacity="1" transform="matrix(1,0,0,1,0,0)"><path fill="rgb(255,255,255)" fill-opacity="1" d=" M109.4000015258789,122.00700378417969 C109.4000015258789,122.00700378417969 111.45999908447266,112.677001953125 109.16999816894531,106.0270004272461 C109.16999816894531,106.0270004272461 109.4000015258789,122.00700378417969 109.4000015258789,122.00700378417969z"></path></g><g opacity="1" transform="matrix(1,0,0,1,0,0)"><path stroke-linecap="round" stroke-linejoin="round" fill-opacity="0" stroke="rgb(34,23,20)" stroke-opacity="1" stroke-width="2.06" d=" M109.4000015258789,122.00700378417969 C109.4000015258789,122.00700378417969 111.45999908447266,112.677001953125 109.16999816894531,106.0270004272461"></path></g><g opacity="1" transform="matrix(1,0,0,1,0,0)"><path fill="rgb(234,96,130)" fill-opacity="1" d=" M78.6500015258789,105.80899810791016 C78.6500015258789,105.80899810791016 79.61000061035156,110.21900177001953 82.4000015258789,111.58899688720703 C88.06999969482422,114.37899780273438 92.5199966430664,108.81900024414062 100.79000091552734,114.5989990234375 C100.79000091552734,114.5989990234375 106.12000274658203,105.3489990234375 103.08000183105469,98.12899780273438"></path></g><g opacity="1" transform="matrix(1,0,0,1,0,0)"><path stroke-linecap="round" stroke-linejoin="round" fill-opacity="0" stroke="rgb(34,23,20)" stroke-opacity="1" stroke-width="2.06" d=" M78.6500015258789,105.80899810791016 C78.6500015258789,105.80899810791016 79.61000061035156,110.21900177001953 82.4000015258789,111.58899688720703 C88.06999969482422,114.37899780273438 92.5199966430664,108.81900024414062 100.79000091552734,114.5989990234375 C100.79000091552734,114.5989990234375 106.12000274658203,105.3489990234375 103.08000183105469,98.12899780273438"></path></g><g opacity="1" transform="matrix(1,0,0,1,0,0)"><path fill="rgb(255,255,255)" fill-opacity="1" d=" M88.63999938964844,56.189998626708984 C89.4800033569336,37.81999969482422 90.66000366210938,11.6899995803833 78.91999816894531,15.380000114440918 C68.77999877929688,18.579999923706055 76.30000305175781,40.59000015258789 81.13999938964844,57.650001525878906 C79.79000091552734,58.040000915527344 79.12999725341797,58.2400016784668 78.0199966430664,58.68000030517578 C71.3499984741211,42.43000030517578 63.83000183105469,16.139999389648438 54.86000061035156,22.110000610351562 C44.220001220703125,29.170000076293945 60.790000915527344,48.9900016784668 71.48999786376953,61.779998779296875 C61.0099983215332,67.91999816894531 58.779998779296875,78.23999786376953 61.369998931884766,88.3499984741211 C61.38999938964844,88.43000030517578 61.369998931884766,88.51000213623047 61.310001373291016,88.58000183105469 C55.540000915527344,94.7699966430664 60.540000915527344,108.3290023803711 79.48999786376953,107.95899963378906 C85.02999877929688,107.85900115966797 91.73999786376953,106.55899810791016 99.73999786376953,103.53900146484375 C102.86000061035156,102.35900115966797 105.55000305175781,101.02899932861328 107.8499984741211,99.5989990234375 C124.86000061035156,89.03900146484375 120.66000366210938,73.06900024414062 111.95999908447266,72.83899688720703 C111.83000183105469,72.83899688720703 111.72000122070312,72.76899719238281 111.68000030517578,72.64900207519531 C108.54000091552734,63.0989990234375 100.95999908447266,55.499000549316406 88.6500015258789,56.20899963378906"></path></g><g opacity="1" transform="matrix(1,0,0,1,0,0)"><path stroke-linecap="round" stroke-linejoin="round" fill-opacity="0" stroke="rgb(34,23,20)" stroke-opacity="1" stroke-width="2.06" d=" M88.63999938964844,56.189998626708984 C89.4800033569336,37.81999969482422 90.66000366210938,11.6899995803833 78.91999816894531,15.380000114440918 C68.77999877929688,18.579999923706055 76.30000305175781,40.59000015258789 81.13999938964844,57.650001525878906 C79.79000091552734,58.040000915527344 79.12999725341797,58.2400016784668 78.0199966430664,58.68000030517578 C71.3499984741211,42.43000030517578 63.83000183105469,16.139999389648438 54.86000061035156,22.110000610351562 C44.220001220703125,29.170000076293945 60.790000915527344,48.9900016784668 71.48999786376953,61.779998779296875 C61.0099983215332,67.91999816894531 58.779998779296875,78.23999786376953 61.369998931884766,88.3499984741211 C61.38999938964844,88.43000030517578 61.369998931884766,88.51000213623047 61.310001373291016,88.58000183105469 C55.540000915527344,94.7699966430664 60.540000915527344,108.3290023803711 79.48999786376953,107.95899963378906 C85.02999877929688,107.85900115966797 91.73999786376953,106.55899810791016 99.73999786376953,103.53900146484375 C102.86000061035156,102.35900115966797 105.55000305175781,101.02899932861328 107.8499984741211,99.5989990234375 C124.86000061035156,89.03900146484375 120.66000366210938,73.06900024414062 111.95999908447266,72.83899688720703 C111.83000183105469,72.83899688720703 111.72000122070312,72.76899719238281 111.68000030517578,72.64900207519531 C108.54000091552734,63.0989990234375 100.95999908447266,55.499000549316406 88.6500015258789,56.20899963378906"></path></g><g opacity="1" transform="matrix(1,0,0,1,0,0)"><path fill="rgb(251,228,232)" fill-opacity="1" d=" M69.08000183105469,94.73799896240234 C68.18000030517578,91.86799621582031 70.29000091552734,88.53800201416016 73.88999938964844,87.21800231933594 C77.61000061035156,85.8479995727539 81.62000274658203,87.0780029296875 82.75,90.06800079345703 C83.91000366210938,93.13800048828125 81.56999969482422,96.73799896240234 77.5999984741211,97.97799682617188 C73.7699966430664,99.1780014038086 70,97.6780014038086 69.08000183105469,94.73799896240234 M107.61000061035156,81.3479995727539 C106.7300033569336,78.53800201416016 108.19000244140625,75.90799713134766 110.72000122070312,75.35800170898438 C113.1500015258789,74.8280029296875 115.87000274658203,76.36799621582031 116.94999694824219,78.89800262451172 C118.08999633789062,81.5780029296875 117.04000091552734,84.49800109863281 114.41999816894531,85.31800079345703 C111.68000030517578,86.1780014038086 108.54000091552734,84.33799743652344 107.5999984741211,81.33799743652344"></path></g><g opacity="1" transform="matrix(1,0,0,1,0,0)"><path fill="rgb(34,23,20)" fill-opacity="1" d=" M102.5999984741211,73.95999908447266 C102.5999984741211,73.95999908447266 98.73999786376953,76.55000305175781 98.73999786376953,76.55000305175781 C98.61199951171875,76.63999938964844 98.55899810791016,76.8030014038086 98.61000061035156,76.94999694824219 C98.7699966430664,77.54000091552734 99.08999633789062,78.12999725341797 99.66999816894531,78.6500015258789 C100.38999938964844,79.30000305175781 101.33000183105469,79.62000274658203 102.16000366210938,79.41000366210938 C103.79000091552734,79.01000213623047 104.55000305175781,77.08999633789062 103.86000061035156,75.30000305175781 C103.66000366210938,74.77999877929688 103.36000061035156,74.33999633789062 103,73.98999786376953 C102.87999725341797,73.87999725341797 102.72000122070312,73.86000061035156 102.5999984741211,73.94000244140625 M82.08999633789062,82.56999969482422 C82.66000366210938,84.38999938964844 84.54000091552734,85.4000015258789 86.16000366210938,84.66999816894531 C86.98999786376953,84.29000091552734 87.56999969482422,83.44999694824219 87.75,82.47000122070312 C87.88099670410156,81.8010025024414 87.80799865722656,81.10700225830078 87.54000091552734,80.4800033569336 C87.4749984741211,80.33499908447266 87.3290023803711,80.24400329589844 87.16999816894531,80.25 C87.16999816894531,80.25 82.27999877929688,80.70999908447266 82.27999877929688,80.70999908447266 C82.1240005493164,80.7229995727539 81.99800109863281,80.84400177001953 81.9800033569336,81 C81.91000366210938,81.5 81.94000244140625,82.02999877929688 82.11000061035156,82.55999755859375 M91.9000015258789,81.98799896240234 C91.6500015258789,81.1780014038086 92.7300033569336,80.74800109863281 94.0999984741211,80.31800079345703 C95.47000122070312,79.88800048828125 96.61000061035156,79.62799835205078 96.86000061035156,80.4280014038086 C97.19999694824219,81.49800109863281 96.08000183105469,83.01799774169922 95.05000305175781,83.3479995727539 C94.0199966430664,83.66799926757812 92.23999786376953,83.05799865722656 91.9000015258789,81.98799896240234"></path></g><g opacity="1" transform="matrix(1,0,0,1,0,0)"><path stroke-linecap="round" stroke-linejoin="round" fill-opacity="0" stroke="rgb(34,23,20)" stroke-opacity="1" stroke-width="2.06" d=" M71.4800033569336,61.77000045776367 C71.4800033569336,61.77000045776367 72.05999755859375,61.40999984741211 72.05999755859375,61.40999984741211 M81.13999938964844,57.64799880981445 C81.13999938964844,57.64799880981445 82.08000183105469,57.417999267578125 82.08000183105469,57.417999267578125"></path></g><g opacity="1" transform="matrix(1,0,0,1,0,0)"><path fill="rgb(234,96,130)" fill-opacity="1" d=" M110.66999816894531,58.130001068115234 C110.98999786376953,60.59000015258789 110.05999755859375,62.939998626708984 108.95999908447266,65.02999877929688 C107.5199966430664,67.75 106.29000091552734,69.66999816894531 102.66000366210938,70.4800033569336 C96.7699966430664,71.80000305175781 90.05999755859375,68.62000274658203 88.30999755859375,62.880001068115234 C87.51000213623047,60.27000045776367 87.91000366210938,58.650001525878906 88.7300033569336,56.400001525878906 C90.27999877929688,52.13999938964844 93.55000305175781,48.540000915527344 99.05999755859375,48.65999984741211 C105.1500015258789,48.79999923706055 110.02999877929688,53.040000915527344 110.66999816894531,58.130001068115234 M68.3499984741211,64.29000091552734 C61.43000030517578,69.4800033569336 58.88999938964844,76.13999938964844 58.209999084472656,79.94000244140625 C58.04999923706055,80.81999969482422 58.34000015258789,82.55999755859375 58.619998931884766,83.51000213623047 C59.529998779296875,86.58000183105469 60.880001068115234,87.98999786376953 61.150001525878906,87.55999755859375 C63.33000183105469,84.11000061035156 66.29000091552734,76.30000305175781 76.55999755859375,72.5199966430664 C77.11000061035156,72.31999969482422 68.36000061035156,64.30000305175781 68.36000061035156,64.30000305175781 C68.36000061035156,64.30000305175781 68.3499984741211,64.29000091552734 68.3499984741211,64.29000091552734z"></path><path stroke-linecap="round" stroke-linejoin="round" fill-opacity="0" stroke="rgb(34,23,20)" stroke-opacity="1" stroke-width="2.06" d=" M110.66999816894531,58.130001068115234 C110.98999786376953,60.59000015258789 110.05999755859375,62.939998626708984 108.95999908447266,65.02999877929688 C107.5199966430664,67.75 106.29000091552734,69.66999816894531 102.66000366210938,70.4800033569336 C96.7699966430664,71.80000305175781 90.05999755859375,68.62000274658203 88.30999755859375,62.880001068115234 C87.51000213623047,60.27000045776367 87.91000366210938,58.650001525878906 88.7300033569336,56.400001525878906 C90.27999877929688,52.13999938964844 93.55000305175781,48.540000915527344 99.05999755859375,48.65999984741211 C105.1500015258789,48.79999923706055 110.02999877929688,53.040000915527344 110.66999816894531,58.130001068115234 M68.3499984741211,64.29000091552734 C61.43000030517578,69.4800033569336 58.88999938964844,76.13999938964844 58.209999084472656,79.94000244140625 C58.04999923706055,80.81999969482422 58.34000015258789,82.55999755859375 58.619998931884766,83.51000213623047 C59.529998779296875,86.58000183105469 60.880001068115234,87.98999786376953 61.150001525878906,87.55999755859375 C63.33000183105469,84.11000061035156 66.29000091552734,76.30000305175781 76.55999755859375,72.5199966430664 C77.11000061035156,72.31999969482422 68.36000061035156,64.30000305175781 68.36000061035156,64.30000305175781 C68.36000061035156,64.30000305175781 68.3499984741211,64.29000091552734 68.3499984741211,64.29000091552734z"></path></g><g opacity="1" transform="matrix(1,0,0,1,0,0)"><path fill="rgb(255,255,255)" fill-opacity="1" d=" M93.95999908447266,58.928001403808594 C94.94999694824219,62.28799819946289 98.73999786376953,64.31800079345703 102.18000030517578,63.597999572753906 C105.3499984741211,62.9379997253418 107.19999694824219,60.13800048828125 106.51000213623047,57.21799850463867 C105.80000305175781,54.22800064086914 102.62000274658203,51.90800094604492 99.16000366210938,52.12799835205078 C95.38999938964844,52.36800003051758 92.93000030517578,55.45800018310547 93.94999694824219,58.928001403808594"></path></g><g opacity="1" transform="matrix(1,0,0,1,0,0)"><path stroke-linecap="round" stroke-linejoin="round" fill-opacity="0" stroke="rgb(34,23,20)" stroke-opacity="1" stroke-width="1.86" d=" M92.9800033569336,50.459999084472656 C90.22000122070312,52.40999984741211 88.88999938964844,55.869998931884766 89.97000122070312,59.56999969482422 C91.58999633789062,65.0999984741211 97.83000183105469,68.26000213623047 103.33000183105469,67.22000122070312 C107.30999755859375,66.45999908447266 109.80999755859375,63.90999984741211 110.66000366210938,60.20000076293945"></path></g><g opacity="1" transform="matrix(1,0,0,1,0,0)"><path fill="rgb(234,96,130)" fill-opacity="1" d=" M88.66000366210938,65.46099853515625 C88.75,67.94100189208984 87.58000183105469,70.21099853515625 86.25,72.20099639892578 C84.51000213623047,74.8010025024414 82.93000030517578,76.23100280761719 79.19000244140625,77.11100006103516 C73.77999877929688,78.39099884033203 66.4800033569336,74.43099975585938 65.22000122070312,68.57099914550781 C64.6500015258789,65.9010009765625 65.19000244140625,64.14099884033203 66.25,61.97100067138672 C68.25,57.85100173950195 71.94999694824219,54.520999908447266 77.61000061035156,55.090999603271484 C83.86000061035156,55.72100067138672 88.48999786376953,60.35100173950195 88.66000366210938,65.47100067138672 C88.66000366210938,65.47100067138672 88.66000366210938,65.46099853515625 88.66000366210938,65.46099853515625z"></path><path stroke-linecap="round" stroke-linejoin="round" fill-opacity="0" stroke="rgb(34,23,20)" stroke-opacity="1" stroke-width="2.06" d=" M88.66000366210938,65.46099853515625 C88.75,67.94100189208984 87.58000183105469,70.21099853515625 86.25,72.20099639892578 C84.51000213623047,74.8010025024414 82.93000030517578,76.23100280761719 79.19000244140625,77.11100006103516 C73.77999877929688,78.39099884033203 66.4800033569336,74.43099975585938 65.22000122070312,68.57099914550781 C64.6500015258789,65.9010009765625 65.19000244140625,64.14099884033203 66.25,61.97100067138672 C68.25,57.85100173950195 71.94999694824219,54.520999908447266 77.61000061035156,55.090999603271484 C83.86000061035156,55.72100067138672 88.48999786376953,60.35100173950195 88.66000366210938,65.47100067138672 C88.66000366210938,65.47100067138672 88.66000366210938,65.46099853515625 88.66000366210938,65.46099853515625z"></path></g><g opacity="1" transform="matrix(1,0,0,1,0,0)"><path fill="rgb(255,255,255)" fill-opacity="1" d=" M71.38999938964844,64.9000015258789 C72.08999633789062,68.33000183105469 75.80000305175781,70.66000366210938 79.41000366210938,70.22000122070312 C82.73999786376953,69.81999969482422 84.9000015258789,67.16999816894531 84.47000122070312,64.20999908447266 C84.02999877929688,61.16999816894531 80.97000122070312,58.599998474121094 77.38999938964844,58.540000915527344 C73.48999786376953,58.470001220703125 70.66999816894531,61.36000061035156 71.38999938964844,64.9000015258789"></path></g><g opacity="1" transform="matrix(1,0,0,1,0,0)"><path stroke-linecap="round" stroke-linejoin="round" fill-opacity="0" stroke="rgb(34,23,20)" stroke-opacity="1" stroke-width="1.86" d=" M71.19000244140625,56.382999420166016 C68.16999816894531,58.10300064086914 66.47000122070312,61.44300079345703 67.23999786376953,65.23300170898438 C68.37999725341797,70.88300323486328 74.51000213623047,74.54299926757812 80.26000213623047,73.93299865722656 C84.41999816894531,73.49299621582031 87.2300033569336,71.15299987792969 88.47000122070312,67.52300262451172"></path></g></g><g transform="matrix(1,0,0,1,51.691001892089844,86.14273071289062)" opacity="1" style="display: block;"><g opacity="1" transform="matrix(1,0,0,1,-51.691001892089844,-93.4749984741211)"><path fill="rgb(241,200,0)" fill-opacity="1" d=" M66.27999877929688,119.56099700927734 C65.69999694824219,119.56099700927734 65.13999938964844,119.28099822998047 64.80000305175781,118.8010025024414 C64.80000305175781,118.8010025024414 56.439998626708984,107.28099822998047 56.439998626708984,107.28099822998047 C55.869998931884766,106.49299621582031 56.02000045776367,105.39700317382812 56.779998779296875,104.79100036621094 C57.099998474121094,104.53099822998047 57.5099983215332,104.39099884033203 57.91999816894531,104.39099884033203 C58.439998626708984,104.39099884033203 58.939998626708984,104.61100006103516 59.279998779296875,105.0009994506836 C59.279998779296875,105.0009994506836 68.91999816894531,115.48100280761719 68.91999816894531,115.48100280761719 C69.26000213623047,115.86100006103516 69.41999816894531,116.36100006103516 69.37999725341797,116.85099792480469 C69.33999633789062,117.35099792480469 69.08999633789062,117.81099700927734 68.69999694824219,118.12100219726562 C68.69999694824219,118.12100219726562 67.41000366210938,119.16100311279297 67.41000366210938,119.16100311279297 C67.08999633789062,119.4209976196289 66.68000030517578,119.56099700927734 66.2699966430664,119.56099700927734 C66.2699966430664,119.56099700927734 66.27999877929688,119.56099700927734 66.27999877929688,119.56099700927734z"></path></g><g opacity="1" transform="matrix(1,0,0,1,-51.691001892089844,-93.4749984741211)"><path fill="rgb(34,23,20)" fill-opacity="1" d=" M57.91999816894531,103.56099700927734 C55.88199996948242,103.56500244140625 54.61199951171875,105.7750015258789 55.6349983215332,107.53800201416016 C55.68000030517578,107.61499786376953 55.72800064086914,107.68900299072266 55.779998779296875,107.76100158691406 C55.779998779296875,107.76100158691406 64.13999938964844,119.29100036621094 64.13999938964844,119.29100036621094 C64.62999725341797,119.97100067138672 65.44000244140625,120.38099670410156 66.27999877929688,120.38099670410156 C66.87999725341797,120.38099670410156 67.47000122070312,120.1709976196289 67.93000030517578,119.8010025024414 C67.93000030517578,119.8010025024414 69.22000122070312,118.76100158691406 69.22000122070312,118.76100158691406 C69.77999877929688,118.31099700927734 70.13999938964844,117.64099884033203 70.19999694824219,116.9209976196289 C70.26000213623047,116.20099639892578 70.0199966430664,115.48100280761719 69.54000091552734,114.94100189208984 C69.54000091552734,114.94100189208984 59.86000061035156,104.4209976196289 59.86000061035156,104.4209976196289 C59.380001068115234,103.88099670410156 58.65999984741211,103.5510025024414 57.900001525878906,103.5510025024414 C57.900001525878906,103.5510025024414 57.91999816894531,103.56099700927734 57.91999816894531,103.56099700927734z M57.91999816894531,105.21099853515625 C58.20000076293945,105.21099853515625 58.470001220703125,105.32099914550781 58.66999816894531,105.5510025024414 C58.66999816894531,105.5510025024414 68.31999969482422,116.04100036621094 68.31999969482422,116.04100036621094 C68.6969985961914,116.46800231933594 68.64299774169922,117.12300109863281 68.19999694824219,117.48100280761719 C68.19999694824219,117.48100280761719 66.91000366210938,118.52100372314453 66.91000366210938,118.52100372314453 C66.46600341796875,118.875 65.81600189208984,118.78900146484375 65.4800033569336,118.33100128173828 C65.4800033569336,118.33100128173828 57.119998931884766,106.8010025024414 57.119998931884766,106.8010025024414 C56.81100082397461,106.37100219726562 56.888999938964844,105.7750015258789 57.29999923706055,105.44100189208984 C57.47999954223633,105.29100036621094 57.70000076293945,105.22100067138672 57.91999816894531,105.22100067138672"></path></g><g opacity="1" transform="matrix(1,0,0,1,-51.691001892089844,-93.4749984741211)"><path stroke-linecap="round" stroke-linejoin="round" fill-opacity="0" stroke="rgb(34,23,20)" stroke-opacity="1" stroke-width="2.06" d=" M48.439998626708984,94.1719970703125 C48.439998626708984,94.1719970703125 57.279998779296875,105.4520034790039 57.279998779296875,105.4520034790039"></path></g><g opacity="1" transform="matrix(1,0,0,1,-51.691001892089844,-93.4749984741211)"><path fill="rgb(241,200,0)" fill-opacity="1" d=" M48.439998626708984,94.16999816894531 C41.88999938964844,99.41999816894531 31.950000762939453,97.93000030517578 26.290000915527344,90.86000061035156 C20.6299991607666,83.79000091552734 18.799999237060547,72.19999694824219 26.139999389648438,66.31999969482422 C33.47999954223633,60.439998626708984 44.2599983215332,64.61000061035156 50.04999923706055,71.83000183105469 C55.709999084472656,78.9000015258789 54.9900016784668,88.91999816894531 48.439998626708984,94.16000366210938 C48.439998626708984,94.16000366210938 48.439998626708984,94.16999816894531 48.439998626708984,94.16999816894531z"></path><path stroke-linecap="round" stroke-linejoin="round" fill-opacity="0" stroke="rgb(34,23,20)" stroke-opacity="1" stroke-width="1.65" d=" M48.439998626708984,94.16999816894531 C41.88999938964844,99.41999816894531 31.950000762939453,97.93000030517578 26.290000915527344,90.86000061035156 C20.6299991607666,83.79000091552734 18.799999237060547,72.19999694824219 26.139999389648438,66.31999969482422 C33.47999954223633,60.439998626708984 44.2599983215332,64.61000061035156 50.04999923706055,71.83000183105469 C55.709999084472656,78.9000015258789 54.9900016784668,88.91999816894531 48.439998626708984,94.16000366210938 C48.439998626708984,94.16000366210938 48.439998626708984,94.16999816894531 48.439998626708984,94.16999816894531z"></path></g></g><g mask="url(#__lottie_element_360)" style="display: block;"><g clip-path="url(#__lottie_element_371)" transform="matrix(1,0,0,1,-99948.3125,-99913.859375)" opacity="1"><g transform="matrix(1,0,0,1,99948.3125,99906.5234375)" opacity="1" style="display: block;"><g opacity="1" transform="matrix(1,0,0,1,0,0)"><g opacity="1" transform="matrix(1,0,0,1,0,0)"><path fill="rgb(255,255,255)" fill-opacity="1" d=" M36.46699905395508,37.71900177001953 C36.46699905395508,37.71900177001953 -2.996999979019165,69.3239974975586 -2.996999979019165,69.3239974975586 C-2.996999979019165,69.3239974975586 35.573001861572266,117.48400115966797 35.573001861572266,117.48400115966797 C35.573001861572266,117.48400115966797 75.03600311279297,85.87799835205078 75.03600311279297,85.87799835205078 C75.03600311279297,85.87799835205078 36.46699905395508,37.71900177001953 36.46699905395508,37.71900177001953z"></path></g></g></g><g transform="matrix(1,0,0,1,100000,100000)" opacity="1" style="display: block;"></g></g></g><g transform="matrix(1,0,0,1,51.691001892089844,86.14273071289062)" opacity="1" style="display: block;"></g><g mask="url(#__lottie_element_337)" style="display: block;"><g clip-path="url(#__lottie_element_348)" transform="matrix(1,0,0,1,-99948.3125,-99913.859375)" opacity="1"><g transform="matrix(1,0,0,1,99948.3125,99906.5234375)" opacity="1" style="display: block;"><g opacity="1" transform="matrix(1,0,0,1,0,0)"><g opacity="1" transform="matrix(1,0,0,1,0,0)"><path stroke-linecap="round" stroke-linejoin="round" fill-opacity="0" stroke="rgb(220,221,221)" stroke-opacity="1" stroke-width="0.82" d=" M38.43000030517578,61.683998107910156 C38.43000030517578,61.683998107910156 18.68000030517578,77.49400329589844 18.68000030517578,77.49400329589844 M40.33000183105469,64.06300354003906 C40.33000183105469,64.06300354003906 20.59000015258789,79.86299896240234 20.59000015258789,79.86299896240234 M42.93000030517578,65.85199737548828 C42.93000030517578,65.85199737548828 21.770000457763672,82.79199981689453 21.770000457763672,82.79199981689453 M44.81999969482422,68.20999908447266 C44.81999969482422,68.20999908447266 23.65999984741211,85.16000366210938 23.65999984741211,85.16000366210938 M46.709999084472656,70.58200073242188 C46.709999084472656,70.58200073242188 25.549999237060547,87.52200317382812 25.549999237060547,87.52200317382812 M48.599998474121094,72.94100189208984 C48.599998474121094,72.94100189208984 27.440000534057617,89.88099670410156 27.440000534057617,89.88099670410156 M50.5,75.30000305175781 C50.5,75.30000305175781 29.329999923706055,92.23999786376953 29.329999923706055,92.23999786376953 M55.459999084472656,82.9530029296875 C55.459999084472656,82.9530029296875 35.720001220703125,98.76300048828125 35.720001220703125,98.76300048828125 M52.38999938964844,77.66400146484375 C52.38999938964844,77.66400146484375 31.229999542236328,94.61399841308594 31.229999542236328,94.61399841308594 M53.56999969482422,80.59400177001953 C53.56999969482422,80.59400177001953 33.83000183105469,96.40399932861328 33.83000183105469,96.40399932861328 M20.34000015258789,76.50399780273438 C20.34000015258789,76.50399780273438 37.04999923706055,97.38400268554688 37.04999923706055,97.38400268554688 M22.729999542236328,74.58200073242188 C22.729999542236328,74.58200073242188 39.45000076293945,95.46199798583984 39.45000076293945,95.46199798583984 M23.739999771118164,70.94100189208984 C23.739999771118164,70.94100189208984 43.22999954223633,95.27100372314453 43.22999954223633,95.27100372314453 M26.139999389648438,69.02300262451172 C26.139999389648438,69.02300262451172 45.619998931884766,93.36299896240234 45.619998931884766,93.36299896240234 M28.530000686645508,67.10199737548828 C28.530000686645508,67.10199737548828 48.02000045776367,91.44200134277344 48.02000045776367,91.44200134277344 M30.93000030517578,65.18399810791016 C30.93000030517578,65.18399810791016 50.40999984741211,89.52400207519531 50.40999984741211,89.52400207519531 M34.709999084472656,65.00399780273438 C34.709999084472656,65.00399780273438 51.41999816894531,85.8740005493164 51.41999816894531,85.8740005493164 M37.099998474121094,63.082000732421875 C37.099998474121094,63.082000732421875 53.81999969482422,83.9520034790039 53.81999969482422,83.9520034790039"></path></g></g></g><g transform="matrix(1,0,0,1,100000,100000)" opacity="1" style="display: block;"></g></g></g><g transform="matrix(1,0,0,1,51.691001892089844,86.14273071289062)" opacity="1" style="display: block;"></g><g transform="matrix(1,0,0,1,0,-7.3332672119140625)" opacity="1" style="display: block;"><g opacity="1" transform="matrix(1,0,0,1,51.691001892089844,93.47599792480469)"></g><g opacity="1" transform="matrix(1,0,0,1,0,0)"><path fill="rgb(255,255,255)" fill-opacity="1" d=" M82.06999969482422,117.5989990234375 C82.06999969482422,117.5989990234375 78.5,123.00900268554688 71.55000305175781,123.39900207519531 C67.45999908447266,123.62899780273438 63.77000045776367,121.97899627685547 62.130001068115234,119.40899658203125 C59.47999954223633,115.2490005493164 62.11000061035156,110.63899993896484 66.88999938964844,111.39900207519531 C69.6500015258789,111.83899688720703 70.98999786376953,114.45899963378906 70.98999786376953,117.33899688720703"></path></g><g opacity="1" transform="matrix(1,0,0,1,0,0)"><path stroke-linecap="round" stroke-linejoin="round" fill-opacity="0" stroke="rgb(34,23,20)" stroke-opacity="1" stroke-width="2.06" d=" M82.06999969482422,117.5989990234375 C82.06999969482422,117.5989990234375 78.5,123.00900268554688 71.55000305175781,123.39900207519531 C67.45999908447266,123.62899780273438 63.77000045776367,121.97899627685547 62.130001068115234,119.40899658203125 C59.47999954223633,115.2490005493164 62.11000061035156,110.63899993896484 66.88999938964844,111.39900207519531 C69.6500015258789,111.83899688720703 70.98999786376953,114.45899963378906 70.98999786376953,117.33899688720703"></path></g><g opacity="1" transform="matrix(1,0,0,1,0,0)"><path stroke-linecap="round" stroke-linejoin="round" fill-opacity="0" stroke="rgb(34,23,20)" stroke-opacity="1" stroke-width="1.65" d=" M98.06999969482422,88.0270004272461 C98.79000091552734,89.3270034790039 100.22000122070312,89.72699737548828 100.22000122070312,89.72699737548828 M96.12000274658203,88.69999694824219 C96.3499984741211,90.16999816894531 95.4800033569336,91.37000274658203 95.4800033569336,91.37000274658203 M92.6500015258789,88.25800323486328 C95.19000244140625,85.20800018310547 96.62999725341797,84.70800018310547 100.5199966430664,85.5479965209961"></path></g></g><g transform="matrix(1,0,0,1,0,10)" opacity="1" style="display: block;"><g opacity="1" transform="matrix(1,0,0,1,0,0)"><path fill="rgb(255,255,255)" fill-opacity="1" d=" M126.48999786376953,28.371000289916992 C126.48999786376953,28.371000289916992 121.55999755859375,41.57099914550781 121.55999755859375,41.57099914550781 C121.55999755859375,41.57099914550781 125.66000366210938,45.67100143432617 125.66000366210938,45.67100143432617 C125.66000366210938,45.67100143432617 138.86000061035156,40.74100112915039 138.86000061035156,40.74100112915039 C138.86000061035156,39.03099822998047 137.47999572753906,37.6510009765625 135.77000427246094,37.6510009765625 C135.77000427246094,35.941001892089844 134.38999938964844,34.56100082397461 132.67999267578125,34.56100082397461 C132.67999267578125,32.85100173950195 131.3000030517578,31.47100067138672 129.58999633789062,31.47100067138672 C129.58999633789062,29.76099967956543 128.2100067138672,28.381000518798828 126.5,28.381000518798828 C126.5,28.381000518798828 126.48999786376953,28.371000289916992 126.48999786376953,28.371000289916992z"></path><path stroke-linecap="round" stroke-linejoin="round" fill-opacity="0" stroke="rgb(34,23,20)" stroke-opacity="1" stroke-width="1.65" d=" M126.48999786376953,28.371000289916992 C126.48999786376953,28.371000289916992 121.55999755859375,41.57099914550781 121.55999755859375,41.57099914550781 C121.55999755859375,41.57099914550781 125.66000366210938,45.67100143432617 125.66000366210938,45.67100143432617 C125.66000366210938,45.67100143432617 138.86000061035156,40.74100112915039 138.86000061035156,40.74100112915039 C138.86000061035156,39.03099822998047 137.47999572753906,37.6510009765625 135.77000427246094,37.6510009765625 C135.77000427246094,35.941001892089844 134.38999938964844,34.56100082397461 132.67999267578125,34.56100082397461 C132.67999267578125,32.85100173950195 131.3000030517578,31.47100067138672 129.58999633789062,31.47100067138672 C129.58999633789062,29.76099967956543 128.2100067138672,28.381000518798828 126.5,28.381000518798828 C126.5,28.381000518798828 126.48999786376953,28.371000289916992 126.48999786376953,28.371000289916992z"></path></g><g opacity="1" transform="matrix(1,0,0,1,0,0)"><path fill="rgb(255,255,255)" fill-opacity="1" d=" M123.08399963378906,37.66699981689453 C123.08399963378906,37.66699981689453 129.61099243164062,44.194000244140625 129.61099243164062,44.194000244140625 C129.61099243164062,44.194000244140625 127.77999877929688,46.025001525878906 127.77999877929688,46.025001525878906 C125.97599792480469,47.82899856567383 123.05000305175781,47.82899856567383 121.24600219726562,46.025001525878906 C119.44200134277344,44.22100067138672 119.44200134277344,41.29600143432617 121.24600219726562,39.492000579833984 C121.24600219726562,39.492000579833984 123.0770034790039,37.65999984741211 123.0770034790039,37.65999984741211 C123.0770034790039,37.65999984741211 123.08399963378906,37.66699981689453 123.08399963378906,37.66699981689453z"></path><path stroke-linecap="round" stroke-linejoin="round" fill-opacity="0" stroke="rgb(34,23,20)" stroke-opacity="1" stroke-width="1.65" d=" M123.08399963378906,37.66699981689453 C123.08399963378906,37.66699981689453 129.61099243164062,44.194000244140625 129.61099243164062,44.194000244140625 C129.61099243164062,44.194000244140625 127.77999877929688,46.025001525878906 127.77999877929688,46.025001525878906 C125.97599792480469,47.82899856567383 123.05000305175781,47.82899856567383 121.24600219726562,46.025001525878906 C119.44200134277344,44.22100067138672 119.44200134277344,41.29600143432617 121.24600219726562,39.492000579833984 C121.24600219726562,39.492000579833984 123.0770034790039,37.65999984741211 123.0770034790039,37.65999984741211 C123.0770034790039,37.65999984741211 123.08399963378906,37.66699981689453 123.08399963378906,37.66699981689453z"></path></g><g opacity="1" transform="matrix(1,0,0,1,0,0)"><path fill="rgb(252,208,0)" fill-opacity="1" d=" M129.61000061035156,44.20199966430664 C129.61000061035156,44.20199966430664 123.08300018310547,37.67599868774414 123.08300018310547,37.67599868774414 C123.08300018310547,37.67599868774414 121.25199890136719,39.50699996948242 121.25199890136719,39.50699996948242 C121.25199890136719,39.50699996948242 127.77799987792969,46.034000396728516 127.77799987792969,46.034000396728516 C127.77799987792969,46.034000396728516 129.61000061035156,44.20199966430664 129.61000061035156,44.20199966430664z"></path><path stroke-linecap="round" stroke-linejoin="round" fill-opacity="0" stroke="rgb(34,23,20)" stroke-opacity="1" stroke-width="1.65" d=" M129.61000061035156,44.20199966430664 C129.61000061035156,44.20199966430664 123.08300018310547,37.67599868774414 123.08300018310547,37.67599868774414 C123.08300018310547,37.67599868774414 121.25199890136719,39.50699996948242 121.25199890136719,39.50699996948242 C121.25199890136719,39.50699996948242 127.77799987792969,46.034000396728516 127.77799987792969,46.034000396728516 C127.77799987792969,46.034000396728516 129.61000061035156,44.20199966430664 129.61000061035156,44.20199966430664z"></path></g></g></g></g></svg>